<svg width="142" height="43" viewBox="0 0 142 43" fill="none" xmlns="http://www.w3.org/2000/svg">
<g clip-path="url(#clip0_5_14003)">
<path fill-rule="evenodd" clip-rule="evenodd" d="M29.1758 26.6434C29.2072 26.8228 29.2282 27.0021 29.2544 27.1815C29.2282 26.9969 29.202 26.8228 29.1758 26.6434Z" fill="url(#paint0_linear_5_14003)"/>
<path fill-rule="evenodd" clip-rule="evenodd" d="M29.4116 29.5445C29.4116 29.5973 29.4116 29.6553 29.4116 29.7133C29.4116 29.7555 29.4116 29.7977 29.4116 29.8347C29.4116 29.8663 29.4116 29.898 29.4116 29.9296C29.4116 29.9665 29.4116 30.0035 29.4063 30.0351C29.4063 30.0984 29.4011 30.1617 29.4011 30.225C29.4011 30.2672 29.3958 30.3094 29.3958 30.3464C29.3958 30.3727 29.3958 30.3938 29.3906 30.4202C29.3906 30.4624 29.3854 30.4993 29.3854 30.5415C29.3854 30.5574 29.3853 30.5732 29.3801 30.5837C29.3749 30.6681 29.3696 30.7578 29.3591 30.8422C29.3539 30.895 29.3486 30.9477 29.3434 31.0005C29.3382 31.0427 29.3329 31.0796 29.3329 31.1218C29.3277 31.1587 29.3277 31.2009 29.3224 31.2379C29.3172 31.2853 29.3119 31.3275 29.3067 31.375C29.3015 31.4067 29.2962 31.4436 29.2962 31.4752C29.291 31.5069 29.2857 31.5438 29.2805 31.5755C29.249 31.7865 29.2176 31.9975 29.1756 32.2032C29.1704 32.2296 29.1651 32.2612 29.1599 32.2876C29.1441 32.3773 29.1232 32.467 29.1074 32.5514C29.0969 32.5989 29.0865 32.6463 29.076 32.6938C29.0655 32.7413 29.055 32.7888 29.0445 32.8415C29.0445 32.8415 29.0445 32.8415 29.0445 32.8468C29.034 32.8943 29.0183 32.947 29.0078 32.9945C28.9973 33.042 28.9816 33.0947 28.9711 33.1422C28.9606 33.1897 28.9449 33.2372 28.9292 33.2846V33.2899C28.9134 33.3374 28.9029 33.3849 28.8872 33.4323C28.8715 33.4798 28.861 33.5273 28.8453 33.5748C28.8295 33.6222 28.8138 33.6697 28.7981 33.7172C28.7561 33.8491 28.7142 33.9757 28.667 34.1076C28.6565 34.1339 28.646 34.1603 28.6355 34.1867C28.6198 34.2236 28.6093 34.2553 28.5988 34.2922C28.5831 34.3344 28.5673 34.3819 28.5464 34.4241C28.5306 34.4663 28.5149 34.5032 28.4992 34.5454C28.4782 34.5981 28.4572 34.6509 28.4363 34.7036C28.4205 34.7458 28.3995 34.7933 28.3786 34.8355C28.3366 34.9305 28.2947 35.0202 28.2527 35.1098C28.2317 35.152 28.2108 35.1995 28.1898 35.2417C28.1688 35.2839 28.1479 35.3261 28.1269 35.3683C27.8227 35.975 27.4714 36.55 27.0624 37.1038C27.0414 37.1302 27.0205 37.1619 26.9995 37.1883C26.8841 37.3412 26.7688 37.4889 26.6482 37.6314C26.6167 37.6683 26.5852 37.7052 26.5538 37.7421C26.3807 37.9426 26.2025 38.1431 26.0137 38.3382C25.9875 38.3646 25.956 38.3963 25.9298 38.4226C24.1889 40.2004 21.803 41.651 18.7617 42.7746C26.4332 38.0323 25.0803 28.9062 14.7136 15.3913C4.33649 28.9168 2.98363 38.0428 10.6551 42.7852C7.61376 41.6616 5.22791 40.2109 3.48702 38.4332C3.4608 38.4068 3.42934 38.3752 3.40312 38.3488C3.29825 38.238 3.19862 38.1272 3.09899 38.0165C3.07277 37.9848 3.04131 37.9531 3.01509 37.9215C2.94692 37.8424 2.87876 37.7632 2.81059 37.6841C2.78962 37.6577 2.76864 37.6366 2.74767 37.6103C2.63755 37.4731 2.52743 37.336 2.41732 37.1935C2.3911 37.1566 2.36488 37.1249 2.33866 37.088C2.31244 37.0511 2.28623 37.0194 2.26001 36.9825C2.12892 36.8032 2.00831 36.6238 1.89295 36.4392C1.86674 36.4022 1.84576 36.3653 1.82479 36.3284C1.80381 36.2915 1.77759 36.2545 1.75662 36.2176C1.73564 36.1807 1.70943 36.1438 1.68845 36.1068C1.66748 36.0699 1.6465 36.033 1.62553 35.9961C1.55736 35.8853 1.49444 35.7692 1.43676 35.6532C1.39481 35.5793 1.3581 35.5002 1.31615 35.4211C1.30042 35.3894 1.28469 35.3525 1.26372 35.3208C1.24274 35.2734 1.21652 35.2259 1.19555 35.1837C1.17982 35.1468 1.15884 35.1098 1.14311 35.0729C1.0697 34.9147 1.00153 34.7564 0.933368 34.5981C0.917637 34.5559 0.901906 34.519 0.886175 34.4768C0.849469 34.3819 0.812764 34.2869 0.776058 34.192C0.765571 34.1656 0.755084 34.1339 0.744597 34.1076C0.728866 34.0653 0.713135 34.0232 0.702648 33.9862C0.686917 33.944 0.676429 33.9018 0.660698 33.8649C0.644968 33.8227 0.63448 33.7805 0.618749 33.7383C0.603018 33.6961 0.592531 33.6539 0.5768 33.6117C0.561069 33.5695 0.550582 33.5273 0.540095 33.4851C0.529607 33.4429 0.513877 33.4007 0.503389 33.3585C0.492902 33.3163 0.477171 33.2741 0.466684 33.2319C0.456197 33.1897 0.445709 33.1527 0.435222 33.1105C0.388029 32.9365 0.34608 32.7624 0.309375 32.583C0.2884 32.4934 0.272669 32.409 0.256938 32.3193C0.241207 32.2296 0.225476 32.1399 0.209746 32.0555C0.178284 31.8762 0.152066 31.6968 0.125847 31.5174C0.104873 31.3803 0.0891419 31.2431 0.0786546 31.106C0.0734109 31.0585 0.0681673 31.011 0.0629237 30.9688C0.05768 30.9214 0.0524364 30.8739 0.0524364 30.8317C0.0471927 30.7842 0.0471927 30.7367 0.0419491 30.6945C0.0314618 30.5521 0.0209746 30.4149 0.0157309 30.2725C0.0104873 30.1776 0.00524364 30.0826 0.00524364 29.9876C0.00524364 29.8927 0 29.7977 0 29.6975C0 29.592 0 29.4865 0 29.381C0 29.323 0 29.265 0 29.2069C0 29.1014 0.00524364 28.9959 0.0104873 28.8851C0.0104873 28.8746 0.0104873 28.864 0.0104873 28.8535C0.0104873 28.7955 0.0157309 28.7427 0.0209746 28.6847C0.0262182 28.5739 0.0314618 28.4579 0.0419491 28.3418C0.0419491 28.3365 0.0419491 28.3312 0.0419491 28.326C0.0471927 28.2679 0.0524364 28.2099 0.05768 28.1519C0.0681673 28.0306 0.0786546 27.9145 0.0891419 27.7932C0.0943855 27.7352 0.0996291 27.6719 0.110116 27.6138C0.11536 27.5505 0.125847 27.4925 0.131091 27.4345C0.141578 27.3395 0.152066 27.2393 0.167796 27.1443C0.17304 27.0863 0.183527 27.023 0.194015 26.965C0.204502 26.8753 0.220233 26.7909 0.23072 26.7012C0.241207 26.6432 0.251695 26.5799 0.262182 26.5219C0.283156 26.3953 0.304131 26.2739 0.325106 26.1473C0.335593 26.084 0.34608 26.0207 0.361811 25.9574C0.372298 25.8941 0.388029 25.8308 0.398517 25.7675C0.40376 25.7411 0.409004 25.7148 0.414247 25.6884C0.424735 25.6356 0.435222 25.5829 0.445709 25.5301C0.445709 25.5196 0.450953 25.5143 0.450953 25.5038C0.466684 25.4352 0.477171 25.3719 0.492902 25.3086C0.498146 25.2822 0.503389 25.2558 0.508633 25.2295C0.540095 25.087 0.571557 24.9499 0.608262 24.8074C0.639724 24.6756 0.671186 24.549 0.707891 24.4171C0.723622 24.3538 0.739353 24.2852 0.760328 24.2219C0.797033 24.09 0.828495 23.9581 0.8652 23.8263C0.901906 23.6891 0.943855 23.5519 0.98056 23.4148C1.00154 23.3515 1.01727 23.2882 1.03824 23.2249C1.05921 23.1563 1.08019 23.0877 1.10116 23.0244C1.14836 22.8767 1.19555 22.729 1.24274 22.5813C1.27945 22.4653 1.31615 22.3545 1.3581 22.2384C1.38432 22.1593 1.41054 22.0802 1.43676 22.001C1.45773 21.9377 1.47871 21.8797 1.49968 21.8164C1.53114 21.732 1.5626 21.6476 1.59407 21.5579C1.61504 21.4946 1.64126 21.4366 1.66223 21.3733C1.68845 21.3047 1.71467 21.2309 1.74089 21.1623C1.79332 21.0199 1.84576 20.8827 1.90344 20.7403C1.92966 20.6717 1.95588 20.5979 1.98734 20.5293C2.0188 20.4607 2.04502 20.3868 2.07124 20.313C2.09746 20.2391 2.12892 20.1706 2.16038 20.0967C2.31244 19.7222 2.475 19.3424 2.64804 18.9573C2.67426 18.9045 2.69523 18.8465 2.72145 18.7885C2.75291 18.7146 2.78962 18.6408 2.82108 18.5669C2.85254 18.4931 2.88924 18.4192 2.92071 18.3454C2.92595 18.3348 2.93119 18.319 2.93644 18.3084C2.96266 18.2451 2.99412 18.1871 3.02034 18.1238C3.05704 18.05 3.0885 17.9761 3.12521 17.9022C3.16191 17.8284 3.19862 17.7545 3.23008 17.6754C3.26679 17.6016 3.30349 17.5224 3.3402 17.4486C3.41361 17.2956 3.48702 17.1479 3.56567 16.9949C3.60238 16.9211 3.63909 16.8419 3.68103 16.7681C3.75969 16.6046 3.84359 16.441 3.92749 16.2775C4.0009 16.1351 4.07431 15.9874 4.15296 15.8449C4.19491 15.7658 4.23686 15.692 4.27357 15.6128C4.31551 15.5337 4.35746 15.4598 4.39941 15.3807C4.4938 15.2066 4.58818 15.0326 4.68257 14.8585C4.71403 14.7952 4.75074 14.7371 4.7822 14.6738C4.82415 14.5947 4.87134 14.5156 4.91329 14.4365C4.95524 14.3573 5.00243 14.2782 5.04438 14.1991C5.18071 13.9617 5.31705 13.719 5.45863 13.4764C5.50582 13.3973 5.55301 13.3129 5.60021 13.2337C5.6474 13.1546 5.68935 13.0755 5.73654 13.0016C5.73654 12.9963 5.74178 12.9963 5.74178 12.9911C5.78898 12.9119 5.83617 12.8275 5.88861 12.7484C5.9358 12.6693 5.98823 12.5849 6.03543 12.5058C6.13506 12.3369 6.23469 12.1734 6.33956 12.0046C6.38675 11.9255 6.43919 11.8464 6.48638 11.7672C6.69088 11.4349 6.89538 11.1026 7.11037 10.7702C7.16281 10.6858 7.21525 10.6014 7.27293 10.517C7.39353 10.3271 7.51413 10.1372 7.63998 9.9473C7.73437 9.79959 7.834 9.65189 7.93363 9.49891C8.10667 9.24043 8.27971 8.97667 8.45799 8.71291C8.56811 8.5441 8.68347 8.38057 8.79883 8.21177C9.09771 7.77393 9.40184 7.33081 9.71646 6.88243C9.76365 6.81385 9.81085 6.74527 9.86328 6.67669C11.0379 5.02029 12.3121 3.31641 13.6911 1.55451C13.7646 1.45956 13.8432 1.3646 13.9166 1.26965C14.1788 0.937315 14.441 0.610255 14.7084 0.272644C14.9758 0.604979 15.238 0.937315 15.5002 1.26965C15.5736 1.3646 15.6523 1.45956 15.7257 1.55451C16.5384 2.58844 17.3093 3.60127 18.0486 4.60355C18.1535 4.74071 18.2531 4.88314 18.358 5.02029C18.8509 5.69551 19.3333 6.36018 19.7947 7.01958C19.8891 7.15673 19.9835 7.29389 20.0779 7.42577C20.7596 8.40695 21.4045 9.3723 22.0128 10.3166C22.1019 10.4537 22.1858 10.5909 22.275 10.728C22.5005 11.0815 22.7207 11.4296 22.9304 11.7778C22.9776 11.8569 23.0301 11.936 23.0773 12.0152C23.1821 12.184 23.2818 12.3475 23.3814 12.5163C23.4286 12.5954 23.481 12.6798 23.5282 12.759C23.5754 12.8381 23.6226 12.9225 23.675 13.0016C23.675 13.0016 23.6803 13.0069 23.6803 13.0122C23.7275 13.0913 23.7747 13.1704 23.8166 13.2443C23.8638 13.3234 23.911 13.4078 23.9582 13.4869C23.9844 13.5291 24.0106 13.5713 24.0316 13.6188C24.0683 13.6821 24.0998 13.7401 24.1365 13.8034C24.2151 13.9406 24.2938 14.0778 24.3672 14.2149C24.4091 14.294 24.4563 14.3732 24.4983 14.4523C24.6766 14.7688 24.8496 15.0853 25.0174 15.3965C25.0593 15.4757 25.1013 15.5548 25.1432 15.6287C25.1852 15.7078 25.2271 15.7816 25.2638 15.8608C25.3425 16.0085 25.4159 16.1509 25.4893 16.2933C25.5732 16.4569 25.6571 16.6204 25.7358 16.7839C25.7725 16.863 25.8144 16.9369 25.8511 17.0107C25.9245 17.1637 26.0032 17.3167 26.0766 17.4644C26.1133 17.5383 26.15 17.6121 26.1867 17.6912C26.2234 17.7651 26.2601 17.8389 26.2916 17.9181C26.3283 17.9919 26.3598 18.0658 26.3965 18.1396C26.4279 18.2029 26.4542 18.261 26.4804 18.3243C26.4856 18.3348 26.4909 18.3506 26.4961 18.3612C26.5276 18.435 26.5643 18.5089 26.5957 18.5827C26.6272 18.6513 26.6587 18.7199 26.6901 18.7885C26.7268 18.8676 26.7583 18.9467 26.795 19.0259C26.8579 19.1736 26.9208 19.316 26.9838 19.4637C26.9995 19.5006 27.0152 19.5428 27.031 19.5797C27.0991 19.738 27.162 19.8963 27.2302 20.0545C27.5081 20.735 27.7598 21.3997 27.9853 22.0538C28.0063 22.1118 28.022 22.1646 28.043 22.2226C28.0744 22.3228 28.1111 22.4231 28.1426 22.5233C28.1583 22.5708 28.1741 22.6235 28.1898 22.671C28.2055 22.7237 28.2265 22.7818 28.2422 22.8345C28.2632 22.9031 28.2842 22.9717 28.3052 23.0403C28.5149 23.7155 28.6932 24.3801 28.8453 25.0237C28.8557 25.0765 28.8662 25.1239 28.882 25.1767C28.8872 25.2031 28.8924 25.2295 28.8977 25.2506C28.8977 25.2558 28.8977 25.2611 28.8977 25.2611C28.9187 25.3508 28.9396 25.4457 28.9554 25.5354C28.9711 25.6198 28.9921 25.6989 29.0078 25.7833C29.0131 25.7992 29.0131 25.8203 29.0183 25.8361C29.034 25.9258 29.055 26.0102 29.0707 26.0999C29.0865 26.1843 29.1022 26.2687 29.1127 26.3478C29.1179 26.3794 29.1232 26.4164 29.1284 26.448C29.1389 26.506 29.1494 26.5641 29.1546 26.6221C29.1546 26.6379 29.1599 26.6537 29.1599 26.6696C29.1913 26.8489 29.2123 27.0283 29.2385 27.2076C29.249 27.292 29.2595 27.3764 29.27 27.4608C29.27 27.4661 29.27 27.4714 29.27 27.4819C29.2805 27.5558 29.2857 27.6244 29.2962 27.6982C29.3015 27.7299 29.3015 27.7615 29.3067 27.7932C29.3119 27.8618 29.3224 27.9356 29.3277 28.0042C29.3329 28.0358 29.3329 28.0728 29.3382 28.1044C29.3434 28.1519 29.3486 28.2046 29.3486 28.2521C29.3486 28.2679 29.3486 28.2838 29.3539 28.2996C29.3591 28.3787 29.3644 28.4579 29.3696 28.537C29.3696 28.5423 29.3696 28.5423 29.3696 28.5475C29.3749 28.6267 29.3801 28.7005 29.3801 28.7796C29.3801 28.7955 29.3801 28.8113 29.3801 28.8271C29.3853 28.9062 29.3854 28.9854 29.3906 29.0645V29.0698C29.3906 29.1436 29.3958 29.2175 29.3958 29.2966C29.3958 29.3177 29.3958 29.3388 29.3958 29.3599C29.4116 29.3968 29.4116 29.4707 29.4116 29.5445Z" fill="url(#paint1_linear_5_14003)"/>
<path fill-rule="evenodd" clip-rule="evenodd" d="M0.508545 25.2244C0.540007 25.082 0.571469 24.9395 0.608174 24.7971C0.571469 24.9395 0.540007 25.0767 0.508545 25.2244C0.508545 25.2191 0.508545 25.2191 0.508545 25.2244Z" fill="url(#paint2_linear_5_14003)"/>
<path fill-rule="evenodd" clip-rule="evenodd" d="M0.608398 24.7971C0.63986 24.6652 0.671322 24.5386 0.708028 24.4067C0.671322 24.5333 0.63986 24.6652 0.608398 24.7971Z" fill="url(#paint3_linear_5_14003)"/>
<path fill-rule="evenodd" clip-rule="evenodd" d="M0.0209961 28.6797C0.0262397 28.569 0.0314834 28.4529 0.0419706 28.3369C0.036727 28.4529 0.0262397 28.5637 0.0209961 28.6797Z" fill="url(#paint4_linear_5_14003)"/>
<path fill-rule="evenodd" clip-rule="evenodd" d="M0.0888349 27.7881C0.0783476 27.9095 0.0678603 28.0255 0.057373 28.1469C0.0678603 28.0308 0.0783476 27.9095 0.0888349 27.7881Z" fill="url(#paint5_linear_5_14003)"/>
<path fill-rule="evenodd" clip-rule="evenodd" d="M0.125488 31.5176C0.151706 31.6969 0.177925 31.8816 0.209386 32.0556C0.177925 31.8763 0.151706 31.6969 0.125488 31.5176Z" fill="url(#paint6_linear_5_14003)"/>
<path fill-rule="evenodd" clip-rule="evenodd" d="M0.262207 26.5115C0.283182 26.3849 0.304156 26.2636 0.325131 26.137C0.298912 26.2583 0.277938 26.3849 0.262207 26.5115Z" fill="url(#paint7_linear_5_14003)"/>
<path fill-rule="evenodd" clip-rule="evenodd" d="M15.1647 42.585L14.9969 38.2488L14.7032 30.6051L14.4096 38.2488L14.2418 42.585C7.45126 39.9474 5.94109 34.8727 9.07154 27.651C9.08727 27.6141 9.103 27.5772 9.11874 27.5403C9.15544 27.4611 9.19215 27.3767 9.22885 27.2976C9.23934 27.2765 9.24458 27.2607 9.25507 27.2396C9.28129 27.1763 9.31275 27.113 9.33897 27.0549C9.37567 26.9705 9.41238 26.8914 9.45433 26.807C9.49103 26.7226 9.53298 26.6435 9.57493 26.5591C9.58018 26.5538 9.58018 26.5485 9.58542 26.5432C9.62212 26.4641 9.65883 26.3903 9.70078 26.3111C9.74273 26.2267 9.78468 26.1423 9.82663 26.0579C9.86333 25.9841 9.90528 25.905 9.94199 25.8311C9.94723 25.8206 9.95247 25.8153 9.95772 25.8047C10.0469 25.6359 10.136 25.4671 10.2251 25.293C10.2723 25.2086 10.3195 25.119 10.3615 25.0346C10.4087 24.9501 10.4559 24.8605 10.5031 24.7761C10.5502 24.6917 10.5974 24.602 10.6446 24.5176C10.6446 24.5176 10.6446 24.5176 10.6446 24.5123C10.7128 24.391 10.7862 24.2644 10.8544 24.143C10.9278 24.0164 11.0012 23.8951 11.0694 23.7685C11.0799 23.7527 11.0903 23.7369 11.1008 23.721C11.1533 23.6366 11.2005 23.5522 11.2529 23.4678C11.342 23.3148 11.4364 23.1619 11.5308 23.0142C11.5518 22.9772 11.578 22.9403 11.599 22.8981C11.6514 22.8137 11.7038 22.7293 11.7563 22.6449C11.814 22.5552 11.8716 22.4603 11.9293 22.3706C11.987 22.2809 12.0447 22.186 12.1076 22.0963C12.1653 22.0066 12.2282 21.9117 12.2859 21.822C12.3436 21.727 12.4065 21.6373 12.4694 21.5424C12.5323 21.4474 12.5953 21.3578 12.6529 21.2628C12.7159 21.1679 12.7788 21.0782 12.8417 20.9832C12.9256 20.8619 13.0095 20.7353 13.0934 20.614C13.1354 20.5507 13.1826 20.4821 13.2297 20.4188C13.3608 20.2289 13.4972 20.039 13.6335 19.8438C13.7017 19.7488 13.7698 19.6539 13.838 19.5537C14.1159 19.1686 14.3991 18.7782 14.698 18.3826C15.0755 18.889 15.4373 19.3848 15.7834 19.8754C15.8516 19.9757 15.9197 20.0706 15.9879 20.1708C16.0561 20.2658 16.1242 20.366 16.1924 20.461C16.2606 20.5559 16.3287 20.6562 16.3917 20.7511C16.5228 20.9463 16.6538 21.1362 16.7797 21.3261C16.8426 21.4211 16.9055 21.516 16.9685 21.611C17.0314 21.7059 17.0943 21.8009 17.152 21.8958C17.2149 21.9908 17.2726 22.0857 17.3355 22.1807C17.3932 22.2756 17.4561 22.3706 17.5138 22.4603C17.5715 22.5499 17.6292 22.6396 17.6816 22.7293C17.6868 22.7399 17.6921 22.7504 17.6973 22.7557C17.7498 22.8454 17.8074 22.9298 17.8599 23.0142C17.9228 23.1144 17.9857 23.2199 18.0434 23.3201C18.1011 23.4204 18.164 23.5206 18.2269 23.6261C18.2584 23.6788 18.2846 23.7263 18.3161 23.7791C18.7041 24.4332 19.0607 25.0768 19.3858 25.6992C19.412 25.7467 19.433 25.7889 19.4539 25.8364C19.4802 25.8839 19.5011 25.9313 19.5274 25.9788C19.5536 26.0263 19.5746 26.0738 19.6008 26.1212C19.7895 26.501 19.9678 26.8756 20.1356 27.2448C20.1514 27.2818 20.1671 27.3187 20.1828 27.3503C20.23 27.4506 20.272 27.5561 20.3191 27.6563C23.4653 34.8727 21.9552 39.9474 15.1647 42.585Z" fill="#0064C6"/>
<path fill-rule="evenodd" clip-rule="evenodd" d="M10.2198 25.293C10.1254 25.4671 10.0363 25.6359 9.95239 25.8047C10.0415 25.6359 10.1307 25.4671 10.2198 25.293Z" fill="url(#paint8_linear_5_14003)"/>
<path fill-rule="evenodd" clip-rule="evenodd" d="M14.9967 38.2489L14.7083 30.6104L14.9967 38.2489Z" fill="url(#paint9_linear_5_14003)"/>
</g>
<path d="M33.8212 10.0882H36.9446L39.594 16.5488H39.7163L42.3658 10.0882H45.4891V20.523H43.0333V14.1133H42.9466L40.4398 20.4568H38.8705L36.3637 14.0777H36.2771V20.523H33.8212V10.0882ZM49.3194 20.523H46.6088L50.1295 10.0882H53.4872L57.0079 20.523H54.2973L51.8466 12.7173H51.765L49.3194 20.523ZM48.9576 16.4163H54.6234V18.3321H48.9576V16.4163ZM64.4889 13.4968C64.4311 13.2828 64.3462 13.0943 64.2341 12.9313C64.122 12.7648 63.9845 12.6238 63.8214 12.5084C63.6584 12.3929 63.4715 12.3063 63.2609 12.2485C63.0504 12.1874 62.8194 12.1568 62.568 12.1568C62.0619 12.1568 61.6237 12.2791 61.2535 12.5236C60.8866 12.7682 60.603 13.1249 60.4026 13.5936C60.2022 14.059 60.102 14.6245 60.102 15.2903C60.102 15.9595 60.1988 16.5301 60.3924 17.0023C60.586 17.4744 60.8662 17.8345 61.2331 18.0824C61.5999 18.3304 62.0449 18.4544 62.568 18.4544C63.03 18.4544 63.4206 18.3797 63.7399 18.2302C64.0626 18.0773 64.3072 17.8616 64.4736 17.5831C64.64 17.3046 64.7233 16.9768 64.7233 16.5998L65.192 16.6558H62.6546V14.8165H67.1536V16.1972C67.1536 17.1313 66.9549 17.9313 66.5575 18.597C66.1635 19.2628 65.62 19.774 64.9271 20.1307C64.2375 20.4873 63.4444 20.6657 62.5476 20.6657C61.5524 20.6657 60.6777 20.45 59.9236 20.0186C59.1696 19.5872 58.5819 18.9724 58.1607 18.1742C57.7395 17.3725 57.5289 16.4214 57.5289 15.3209C57.5289 14.4649 57.6563 13.7057 57.9111 13.0433C58.1658 12.3776 58.5208 11.8137 58.9759 11.3518C59.4345 10.8898 59.9644 10.5399 60.5656 10.3022C61.1702 10.0644 61.8207 9.9455 62.5171 9.9455C63.1217 9.9455 63.6838 10.0321 64.2035 10.2054C64.7267 10.3786 65.1886 10.6232 65.5894 10.9391C65.9936 11.255 66.3214 11.6303 66.5728 12.0651C66.8241 12.4999 66.9804 12.9771 67.0415 13.4968H64.4889ZM77.521 10.0882V20.523H75.381L71.2285 14.5006H71.1622V20.523H68.6401V10.0882H70.8107L74.9174 16.1004H75.004V10.0882H77.521ZM79.1068 20.523V10.0882H86.3827V12.1364H81.6289V14.2764H86.0107V16.3297H81.6289V18.4748H86.3827V20.523H79.1068ZM87.6208 12.1364V10.0882H96.4405V12.1364H93.2764V20.523H90.79V12.1364H87.6208ZM106.668 13.8688H104.12C104.086 13.6072 104.017 13.3711 103.911 13.1605C103.806 12.9499 103.667 12.7699 103.493 12.6205C103.32 12.471 103.115 12.3572 102.877 12.2791C102.643 12.1976 102.383 12.1568 102.097 12.1568C101.591 12.1568 101.155 12.2808 100.788 12.5287C100.424 12.7767 100.144 13.1351 99.9472 13.6038C99.7536 14.0726 99.6568 14.6398 99.6568 15.3056C99.6568 15.9985 99.7553 16.5794 99.9523 17.0481C100.153 17.5135 100.433 17.865 100.793 18.1028C101.156 18.3372 101.586 18.4544 102.082 18.4544C102.361 18.4544 102.614 18.4187 102.841 18.3474C103.072 18.2761 103.274 18.1725 103.448 18.0366C103.624 17.8973 103.769 17.7292 103.881 17.5322C103.996 17.3318 104.076 17.1059 104.12 16.8545L106.668 16.8698C106.624 17.3318 106.489 17.7869 106.265 18.2353C106.044 18.6837 105.74 19.093 105.353 19.4632C104.966 19.8301 104.494 20.1222 103.937 20.3396C103.383 20.557 102.748 20.6657 102.031 20.6657C101.087 20.6657 100.241 20.4585 99.4938 20.0441C98.7499 19.6263 98.1622 19.0182 97.7308 18.22C97.2994 17.4218 97.0838 16.4503 97.0838 15.3056C97.0838 14.1575 97.3028 13.1843 97.741 12.3861C98.1792 11.5878 98.7719 10.9815 99.5192 10.5671C100.267 10.1527 101.104 9.9455 102.031 9.9455C102.663 9.9455 103.247 10.0338 103.784 10.2105C104.321 10.3837 104.793 10.6384 105.2 10.9747C105.608 11.3076 105.939 11.7169 106.194 12.2026C106.449 12.6884 106.607 13.2438 106.668 13.8688ZM117.96 15.3056C117.96 16.4537 117.739 17.4269 117.297 18.2251C116.856 19.0233 116.258 19.6297 115.504 20.0441C114.753 20.4585 113.911 20.6657 112.977 20.6657C112.039 20.6657 111.195 20.4568 110.444 20.039C109.694 19.6212 109.098 19.0148 108.656 18.22C108.218 17.4218 107.999 16.4503 107.999 15.3056C107.999 14.1575 108.218 13.1843 108.656 12.3861C109.098 11.5878 109.694 10.9815 110.444 10.5671C111.195 10.1527 112.039 9.9455 112.977 9.9455C113.911 9.9455 114.753 10.1527 115.504 10.5671C116.258 10.9815 116.856 11.5878 117.297 12.3861C117.739 13.1843 117.96 14.1575 117.96 15.3056ZM115.382 15.3056C115.382 14.6262 115.285 14.0522 115.091 13.5834C114.901 13.1147 114.626 12.7597 114.266 12.5185C113.909 12.2774 113.479 12.1568 112.977 12.1568C112.477 12.1568 112.048 12.2774 111.688 12.5185C111.328 12.7597 111.051 13.1147 110.857 13.5834C110.667 14.0522 110.572 14.6262 110.572 15.3056C110.572 15.9849 110.667 16.559 110.857 17.0277C111.051 17.4965 111.328 17.8515 111.688 18.0926C112.048 18.3338 112.477 18.4544 112.977 18.4544C113.479 18.4544 113.909 18.3338 114.266 18.0926C114.626 17.8515 114.901 17.4965 115.091 17.0277C115.285 16.559 115.382 15.9849 115.382 15.3056ZM123.289 20.523H119.432V10.0882H123.284C124.347 10.0882 125.263 10.2971 126.031 10.7149C126.802 11.1293 127.396 11.7271 127.814 12.5084C128.232 13.2862 128.441 14.2169 128.441 15.3005C128.441 16.3875 128.232 17.3216 127.814 18.1028C127.399 18.8841 126.807 19.4836 126.036 19.9014C125.265 20.3158 124.349 20.523 123.289 20.523ZM121.954 18.3729H123.193C123.777 18.3729 124.271 18.2744 124.675 18.0773C125.083 17.8769 125.39 17.5525 125.597 17.1042C125.808 16.6524 125.913 16.0512 125.913 15.3005C125.913 14.5498 125.808 13.952 125.597 13.507C125.387 13.0586 125.076 12.7359 124.665 12.5389C124.257 12.3385 123.755 12.2383 123.157 12.2383H121.954V18.3729ZM129.913 20.523V10.0882H137.189V12.1364H132.435V14.2764H136.817V16.3297H132.435V18.4748H137.189V20.523H129.913Z" fill="#0064C6"/>
<path d="M40.6691 32.7593C40.6114 32.5453 40.5264 32.3567 40.4143 32.1937C40.3023 32.0273 40.1647 31.8863 40.0016 31.7708C39.8386 31.6553 39.6518 31.5687 39.4412 31.511C39.2306 31.4498 38.9996 31.4192 38.7482 31.4192C38.2421 31.4192 37.8039 31.5415 37.4337 31.7861C37.0668 32.0307 36.7832 32.3873 36.5828 32.8561C36.3824 33.3214 36.2822 33.887 36.2822 34.5528C36.2822 35.2219 36.379 35.7926 36.5726 36.2647C36.7662 36.7369 37.0465 37.0969 37.4133 37.3449C37.7802 37.5929 38.2251 37.7168 38.7482 37.7168C39.2102 37.7168 39.6008 37.6421 39.9201 37.4926C40.2428 37.3398 40.4874 37.1241 40.6538 36.8456C40.8203 36.567 40.9035 36.2392 40.9035 35.8622L41.3722 35.9183H38.8349V34.0789H43.3339V35.4597C43.3339 36.3938 43.1352 37.1937 42.7377 37.8595C42.3437 38.5253 41.8002 39.0365 41.1073 39.3931C40.4177 39.7498 39.6246 39.9281 38.7279 39.9281C37.7326 39.9281 36.8579 39.7124 36.1039 39.281C35.3498 38.8497 34.7621 38.2348 34.3409 37.4366C33.9197 36.635 33.7091 35.6839 33.7091 34.5833C33.7091 33.7273 33.8365 32.9682 34.0913 32.3058C34.346 31.64 34.701 31.0762 35.1562 30.6142C35.6147 30.1523 36.1446 29.8024 36.7458 29.5646C37.3505 29.3268 38.001 29.208 38.6973 29.208C39.3019 29.208 39.8641 29.2946 40.3838 29.4678C40.9069 29.641 41.3688 29.8856 41.7697 30.2015C42.1739 30.5174 42.5017 30.8927 42.753 31.3275C43.0044 31.7623 43.1606 32.2396 43.2218 32.7593H40.6691ZM46.7552 39.7855H44.0446L47.5654 29.3506H50.9231L54.4438 39.7855H51.7332L49.2824 31.9797H49.2009L46.7552 39.7855ZM46.3935 35.6788H52.0593V37.5946H46.3935V35.6788ZM60.8853 32.479C60.8514 32.1054 60.7002 31.815 60.4319 31.6078C60.1669 31.3972 59.7882 31.2919 59.2957 31.2919C58.9696 31.2919 58.6978 31.3343 58.4804 31.4192C58.263 31.5042 58.1 31.6214 57.9913 31.7708C57.8826 31.9169 57.8266 32.085 57.8232 32.2752C57.8164 32.4315 57.8469 32.569 57.9149 32.6879C57.9862 32.8068 58.0881 32.9121 58.2206 33.0038C58.3565 33.0921 58.5195 33.1703 58.7097 33.2382C58.8999 33.3061 59.1139 33.3656 59.3517 33.4165L60.2484 33.6203C60.7648 33.7324 61.2199 33.8819 61.6139 34.0687C62.0114 34.2555 62.3442 34.478 62.6126 34.7362C62.8843 34.9943 63.0898 35.2915 63.2291 35.6278C63.3684 35.9641 63.4397 36.3411 63.4431 36.7589C63.4397 37.4179 63.2733 37.9835 62.9438 38.4556C62.6143 38.9278 62.1404 39.2895 61.5222 39.5409C60.9074 39.7923 60.1652 39.9179 59.2957 39.9179C58.4227 39.9179 57.6618 39.7872 57.013 39.5256C56.3643 39.2641 55.8598 38.8666 55.4998 38.3333C55.1397 37.8001 54.9546 37.1258 54.9444 36.3106H57.3595C57.3799 36.6469 57.4699 36.9271 57.6295 37.1513C57.7892 37.3755 58.0083 37.5453 58.2868 37.6608C58.5688 37.7763 58.8948 37.834 59.2651 37.834C59.6048 37.834 59.8935 37.7882 60.1313 37.6965C60.3724 37.6047 60.5576 37.4774 60.6866 37.3143C60.8157 37.1513 60.8819 36.9645 60.8853 36.7539C60.8819 36.5568 60.8208 36.3887 60.7019 36.2494C60.583 36.1068 60.3996 35.9845 60.1516 35.8826C59.9071 35.7773 59.5946 35.6805 59.2141 35.5922L58.1238 35.3374C57.2202 35.1302 56.5086 34.7956 55.9889 34.3337C55.4692 33.8683 55.2111 33.2399 55.2145 32.4485C55.2111 31.8031 55.3843 31.2375 55.7342 30.7518C56.084 30.266 56.5681 29.8873 57.1863 29.6156C57.8045 29.3438 58.5093 29.208 59.3008 29.208C60.1092 29.208 60.8106 29.3455 61.405 29.6207C62.0029 29.8924 62.4665 30.2745 62.796 30.7671C63.1255 31.2596 63.2936 31.8303 63.3004 32.479H60.8853ZM77.2713 33.1312H74.7237C74.6898 32.8697 74.6201 32.6336 74.5148 32.423C74.4095 32.2124 74.2703 32.0324 74.097 31.8829C73.9238 31.7334 73.7183 31.6197 73.4805 31.5415C73.2461 31.46 72.9863 31.4192 72.701 31.4192C72.1948 31.4192 71.7584 31.5432 71.3915 31.7912C71.0281 32.0392 70.7478 32.3975 70.5508 32.8663C70.3572 33.335 70.2604 33.9023 70.2604 34.568C70.2604 35.261 70.3589 35.8418 70.5559 36.3106C70.7563 36.7759 71.0366 37.1275 71.3966 37.3653C71.7601 37.5996 72.1898 37.7168 72.6857 37.7168C72.9642 37.7168 73.2173 37.6812 73.4449 37.6098C73.6758 37.5385 73.8779 37.4349 74.0512 37.299C74.2278 37.1598 74.3722 36.9916 74.4843 36.7946C74.5998 36.5942 74.6796 36.3683 74.7237 36.117L77.2713 36.1322C77.2271 36.5942 77.093 37.0494 76.8688 37.4977C76.648 37.9461 76.344 38.3554 75.9568 38.7257C75.5695 39.0925 75.0974 39.3846 74.5403 39.602C73.9866 39.8194 73.3514 39.9281 72.6347 39.9281C71.6904 39.9281 70.8446 39.7209 70.0974 39.3065C69.3535 38.8887 68.7658 38.2807 68.3344 37.4825C67.903 36.6842 67.6874 35.7127 67.6874 34.568C67.6874 33.4199 67.9064 32.4468 68.3446 31.6485C68.7828 30.8503 69.3755 30.244 70.1228 29.8296C70.8701 29.4152 71.7074 29.208 72.6347 29.208C73.2665 29.208 73.8508 29.2963 74.3875 29.4729C74.9241 29.6461 75.3963 29.9009 75.8039 30.2372C76.2115 30.5701 76.5427 30.9794 76.7975 31.4651C77.0522 31.9508 77.2102 32.5062 77.2713 33.1312ZM78.1948 29.3506H81.0124L83.2186 33.7172H83.3103L85.5165 29.3506H88.3341L84.5179 36.3004V39.7855H82.0111V36.3004L78.1948 29.3506ZM89.3914 39.7855V29.3506H91.9135V37.7372H96.2545V39.7855H89.3914ZM100.082 29.3506V39.7855H97.5601V29.3506H100.082ZM110.546 29.3506V39.7855H108.406L104.254 33.763H104.188V39.7855H101.666V29.3506H103.836L107.943 35.3629H108.029V29.3506H110.546ZM115.989 39.7855H112.132V29.3506H115.984C117.047 29.3506 117.963 29.5595 118.73 29.9773C119.502 30.3917 120.096 30.9896 120.514 31.7708C120.932 32.5487 121.14 33.4794 121.14 34.5629C121.14 35.6499 120.932 36.584 120.514 37.3653C120.099 38.1465 119.507 38.7461 118.736 39.1639C117.964 39.5783 117.049 39.7855 115.989 39.7855ZM114.654 37.6353H115.892C116.477 37.6353 116.971 37.5368 117.375 37.3398C117.783 37.1394 118.09 36.815 118.297 36.3666C118.508 35.9149 118.613 35.3136 118.613 34.5629C118.613 33.8123 118.508 33.2144 118.297 32.7695C118.087 32.3211 117.776 31.9984 117.365 31.8014C116.957 31.601 116.455 31.5008 115.857 31.5008H114.654V37.6353ZM122.613 39.7855V29.3506H129.889V31.3989H125.135V33.5388H129.517V35.5922H125.135V37.7372H129.889V39.7855H122.613ZM131.468 39.7855V29.3506H135.779C136.56 29.3506 137.234 29.4916 137.802 29.7735C138.372 30.052 138.812 30.4529 139.121 30.976C139.43 31.4957 139.585 32.1122 139.585 32.8255C139.585 33.549 139.427 34.1638 139.111 34.6699C138.795 35.1727 138.347 35.5565 137.766 35.8214C137.185 36.083 136.497 36.2138 135.702 36.2138H132.976V34.2267H135.234C135.614 34.2267 135.932 34.1774 136.186 34.0789C136.445 33.977 136.64 33.8241 136.772 33.6203C136.905 33.4131 136.971 33.1482 136.971 32.8255C136.971 32.5028 136.905 32.2362 136.772 32.0256C136.64 31.8116 136.445 31.6519 136.186 31.5466C135.928 31.4379 135.611 31.3836 135.234 31.3836H133.99V39.7855H131.468ZM137.343 35.0164L139.942 39.7855H137.19L134.643 35.0164H137.343Z" fill="#E64D07"/>
<defs>
<linearGradient id="paint0_linear_5_14003" x1="29.2198" y1="27.1711" x2="29.2013" y2="26.441" gradientUnits="userSpaceOnUse">
<stop stop-color="#E75525"/>
<stop offset="1" stop-color="#F2A838"/>
</linearGradient>
<linearGradient id="paint1_linear_5_14003" x1="14.5114" y1="42.8434" x2="15.1437" y2="0.258033" gradientUnits="userSpaceOnUse">
<stop stop-color="#E03700"/>
<stop offset="1" stop-color="#FFA723"/>
</linearGradient>
<linearGradient id="paint2_linear_5_14003" x1="0.562743" y1="25.5133" x2="0.554985" y2="24.8086" gradientUnits="userSpaceOnUse">
<stop stop-color="#E75525"/>
<stop offset="1" stop-color="#F2A838"/>
</linearGradient>
<linearGradient id="paint3_linear_5_14003" x1="0.660546" y1="25.0599" x2="0.653472" y2="24.4172" gradientUnits="userSpaceOnUse">
<stop stop-color="#E75525"/>
<stop offset="1" stop-color="#F2A838"/>
</linearGradient>
<linearGradient id="paint4_linear_5_14003" x1="0.0332452" y1="28.6776" x2="0.0332983" y2="28.2174" gradientUnits="userSpaceOnUse">
<stop stop-color="#E75525"/>
<stop offset="1" stop-color="#F2A838"/>
</linearGradient>
<linearGradient id="paint5_linear_5_14003" x1="0.0735759" y1="28.1468" x2="0.073629" y2="27.6652" gradientUnits="userSpaceOnUse">
<stop stop-color="#E75525"/>
<stop offset="1" stop-color="#F2A838"/>
</linearGradient>
<linearGradient id="paint6_linear_5_14003" x1="0.168937" y1="32.0542" x2="0.169017" y2="31.3276" gradientUnits="userSpaceOnUse">
<stop stop-color="#E75525"/>
<stop offset="1" stop-color="#F2A838"/>
</linearGradient>
<linearGradient id="paint7_linear_5_14003" x1="0.292022" y1="26.5071" x2="0.292081" y2="26.0028" gradientUnits="userSpaceOnUse">
<stop stop-color="#E75525"/>
<stop offset="1" stop-color="#F2A838"/>
</linearGradient>
<linearGradient id="paint8_linear_5_14003" x1="10.0654" y1="25.9419" x2="10.1153" y2="25.0874" gradientUnits="userSpaceOnUse">
<stop stop-color="#089D49"/>
<stop offset="1" stop-color="#A6CC39"/>
</linearGradient>
<linearGradient id="paint9_linear_5_14003" x1="14.5235" y1="40.1332" x2="15.2468" y2="27.751" gradientUnits="userSpaceOnUse">
<stop stop-color="#089D49"/>
<stop offset="1" stop-color="#A6CC39"/>
</linearGradient>
<clipPath id="clip0_5_14003">
<rect width="29.4116" height="42.5337" fill="white" transform="translate(0 0.25177)"/>
</clipPath>
</defs>
</svg>
