<svg width="13" height="13" viewBox="0 0 13 13" fill="none" xmlns="http://www.w3.org/2000/svg">
<path d="M12.5798 4.72554L8.68268 4.17806L6.94055 0.764102C6.89297 0.670629 6.81469 0.594961 6.71799 0.548967C6.47547 0.43324 6.18077 0.529679 6.05951 0.764102L4.31738 4.17806L0.420236 4.72554C0.312792 4.74038 0.214557 4.78934 0.139346 4.86352C0.0484205 4.95386 -0.00168366 5.0754 4.32016e-05 5.20142C0.00177006 5.32745 0.0551867 5.44766 0.148556 5.53563L2.96819 8.19291L2.30204 11.9452C2.28642 12.0324 2.29641 12.1222 2.33088 12.2043C2.36536 12.2864 2.42293 12.3575 2.49708 12.4095C2.57123 12.4616 2.65898 12.4925 2.75039 12.4988C2.8418 12.5051 2.9332 12.4865 3.01424 12.4452L6.50003 10.6736L9.98582 12.4452C10.081 12.4941 10.1915 12.5104 10.2974 12.4926C10.5645 12.4481 10.7441 12.2033 10.698 11.9452L10.0319 8.19291L12.8515 5.53563C12.9283 5.46293 12.9789 5.36798 12.9943 5.26412C13.0357 5.00447 12.8484 4.76412 12.5798 4.72554Z" fill="#FFAE34"/>
</svg>
