<svg width="31" height="31" viewBox="0 0 31 31" fill="none" xmlns="http://www.w3.org/2000/svg">
<g opacity="0.49">
<g clip-path="url(#clip0_2047_1163)">
<path d="M21.573 14.3563C20.2572 11.5186 17.702 9.70752 17.702 9.70752C17.5959 10.4714 17.2584 11.171 16.8005 11.7968C16.5609 11.6006 16.325 11.4001 16.0948 11.1927C15.7069 10.8431 15.3345 10.4641 14.999 10.0575L14.5823 18.0824L14.999 25.4113C15.0594 25.413 15.1197 25.4141 15.18 25.4141C18.3522 25.4141 21.1948 23.3314 22.0557 20.3287C22.6335 18.3579 22.3814 16.0995 21.573 14.3563Z" fill="#747474"/>
<path d="M13.5594 7.03564C13.5594 7.03564 10.3435 9.31507 8.68744 12.8864C7.61153 15.2066 7.25437 18.1767 8.08936 20.4359C9.16536 23.347 12.0948 25.3316 14.999 25.4112V10.0574C14.2697 9.17365 13.7154 8.15989 13.5594 7.03564Z" fill="#918E8B"/>
<path d="M14.999 14.332L14.5823 20.5828L14.999 25.4142C17.3714 25.4142 19.2947 23.4909 19.2947 21.1185C19.2947 17.4456 14.999 14.332 14.999 14.332Z" fill="#C9C4BB"/>
<path d="M10.7034 21.1185C10.7034 23.4909 12.6266 25.4141 14.999 25.4141V14.332C14.999 14.332 10.7034 17.4456 10.7034 21.1185Z" fill="#575757"/>
<path d="M14.9991 18.6338L14.5315 22.3187L14.9991 25.4142C16.4506 25.4142 17.6273 24.2375 17.6273 22.786C17.6274 20.5387 14.9991 18.6338 14.9991 18.6338Z" fill="#EFE2DD"/>
<path d="M12.3708 22.786C12.3708 24.2375 13.5475 25.4142 14.9991 25.4142V18.6338C14.9984 18.6343 12.3708 20.539 12.3708 22.786Z" fill="#FFFBF5"/>
<path d="M22.1047 14.1098C20.739 11.1647 18.1504 9.30711 18.0409 9.22948L17.2542 8.67188L17.1215 9.627C17.062 10.0555 16.9107 10.4884 16.6699 10.9197C16.0031 10.3188 15.4318 9.67161 14.999 9.01887L14.5823 9.74814L14.999 10.942C15.2167 11.1727 15.451 11.4014 15.7025 11.6281C15.9237 11.8275 16.9081 12.6423 16.9081 12.6423C17.4794 12.0162 17.8664 11.2135 18.0418 10.738C18.8569 11.4541 20.2167 12.8244 21.0413 14.6029C21.8283 16.2999 22.0014 18.4308 21.4924 20.1673C20.7056 22.9116 18.1099 24.8282 15.18 24.8282C15.1196 24.8282 15.0593 24.827 14.999 24.8252L14.5823 25.5835L14.999 25.9976C15.0594 25.9992 15.1198 26.0002 15.18 26.0002C18.6299 26.0002 21.6889 23.7344 22.6181 20.4936C23.2115 18.4694 23.0196 16.0829 22.1047 14.1098Z" fill="#3F3F3F"/>
<path d="M8.63908 20.2327C7.90833 18.2556 8.13601 15.4688 9.2192 13.1329C10.3274 10.7429 12.1925 8.93432 13.2009 8.07214C13.5211 9.05297 14.1229 10.0132 14.9991 10.9418V9.0187C14.5362 8.32065 14.2317 7.61622 14.1399 6.95508L14.0073 6L13.2206 6.55757C13.0841 6.65434 9.85791 8.96932 8.15586 12.6399C7.58219 13.8771 7.213 15.2572 7.08826 16.6311C6.95539 18.0945 7.11151 19.4804 7.53976 20.6391C8.10562 22.1701 9.19345 23.549 10.6028 24.5216C11.9311 25.4384 13.4853 25.9588 14.9991 25.9975V24.825C12.2566 24.7442 9.6021 22.8381 8.63908 20.2327Z" fill="#747474"/>
</g>
</g>
<defs>
<clipPath id="clip0_2047_1163">
<rect width="20" height="20" fill="white" transform="translate(5 6)"/>
</clipPath>
</defs>
</svg>
