<svg width="31" height="31" viewBox="0 0 31 31" fill="none" xmlns="http://www.w3.org/2000/svg">
<rect width="31" height="31" rx="8" fill="#F37B16" fill-opacity="0.1"/>
<g clip-path="url(#clip0_2047_541)">
<path d="M21.573 14.3563C20.2572 11.5186 17.702 9.70752 17.702 9.70752C17.5959 10.4714 17.2584 11.171 16.8005 11.7968C16.5609 11.6006 16.325 11.4001 16.0948 11.1927C15.7069 10.8431 15.3345 10.4641 14.999 10.0575L14.5823 18.0824L14.999 25.4113C15.0594 25.413 15.1197 25.4141 15.18 25.4141C18.3522 25.4141 21.1948 23.3314 22.0557 20.3287C22.6335 18.3579 22.3814 16.0995 21.573 14.3563Z" fill="#FD6717"/>
<path d="M13.5594 7.03564C13.5594 7.03564 10.3435 9.31507 8.68744 12.8864C7.61153 15.2066 7.25437 18.1767 8.08936 20.4359C9.16536 23.347 12.0948 25.3316 14.999 25.4112V10.0574C14.2697 9.17365 13.7154 8.15989 13.5594 7.03564Z" fill="#FD8C02"/>
<path d="M14.999 14.3318L14.5823 20.5826L14.999 25.4139C17.3714 25.4139 19.2947 23.4907 19.2947 21.1183C19.2947 17.4453 14.999 14.3318 14.999 14.3318Z" fill="#FDAE02"/>
<path d="M10.7034 21.1182C10.7034 23.4907 12.6266 25.4139 14.999 25.4139V14.3318C14.999 14.3318 10.7034 17.4453 10.7034 21.1182Z" fill="#FDCB02"/>
<path d="M14.9991 18.6335L14.5315 22.3185L14.9991 25.414C16.4506 25.414 17.6273 24.2373 17.6273 22.7858C17.6274 20.5385 14.9991 18.6335 14.9991 18.6335Z" fill="#EFE2DD"/>
<path d="M12.3708 22.7857C12.3708 24.2373 13.5475 25.4139 14.9991 25.4139V18.6335C14.9984 18.634 12.3708 20.5387 12.3708 22.7857Z" fill="#FFFBF5"/>
<path d="M22.1047 14.1096C20.739 11.1644 18.1504 9.30687 18.0409 9.22924L17.2542 8.67163L17.1215 9.62675C17.062 10.0553 16.9107 10.4882 16.6699 10.9194C16.0031 10.3185 15.4318 9.67137 14.999 9.01863L14.5823 9.7479L14.999 10.9417C15.2167 11.1724 15.451 11.4012 15.7025 11.6278C15.9237 11.8272 16.9081 12.6421 16.9081 12.6421C17.4794 12.0159 17.8664 11.2132 18.0418 10.7378C18.8569 11.4539 20.2167 12.8241 21.0413 14.6027C21.8283 16.2996 22.0014 18.4305 21.4924 20.1671C20.7056 22.9113 18.1099 24.8279 15.18 24.8279C15.1196 24.8279 15.0593 24.8267 14.999 24.8249L14.5823 25.5832L14.999 25.9973C15.0594 25.9989 15.1198 25.9999 15.18 25.9999C18.6299 25.9999 21.6889 23.7342 22.6181 20.4934C23.2115 18.4691 23.0196 16.0826 22.1047 14.1096Z" fill="#FF4340"/>
<path d="M8.63908 20.2327C7.90833 18.2556 8.13601 15.4688 9.2192 13.1329C10.3274 10.7429 12.1925 8.93432 13.2009 8.07214C13.5211 9.05297 14.1229 10.0132 14.9991 10.9418V9.0187C14.5362 8.32065 14.2317 7.61622 14.1399 6.95508L14.0073 6L13.2206 6.55757C13.0841 6.65434 9.85791 8.96932 8.15586 12.6399C7.58219 13.8771 7.213 15.2572 7.08826 16.6311C6.95539 18.0945 7.11151 19.4804 7.53976 20.6391C8.10562 22.1701 9.19345 23.549 10.6028 24.5216C11.9311 25.4384 13.4853 25.9588 14.9991 25.9975V24.825C12.2566 24.7442 9.6021 22.8381 8.63908 20.2327Z" fill="#FD6717"/>
</g>
<defs>
<clipPath id="clip0_2047_541">
<rect width="20" height="20" fill="white" transform="translate(5 6)"/>
</clipPath>
</defs>
</svg>
