<svg width="31" height="31" viewBox="0 0 31 31" fill="none" xmlns="http://www.w3.org/2000/svg">
<path d="M18.0001 23C18.0003 23.5046 17.8097 23.9906 17.4666 24.3605C17.1235 24.7305 16.6532 24.9572 16.1501 24.995L16.0001 25H14.0001C13.4955 25.0002 13.0095 24.8096 12.6395 24.4665C12.2696 24.1234 12.0429 23.6532 12.0051 23.15L12.0001 23H18.0001ZM15.0001 6C16.8151 5.99997 18.5591 6.70489 19.8643 7.96607C21.1695 9.22726 21.9339 10.9461 21.9961 12.76L22.0001 13V16.764L23.8221 20.408C23.9016 20.567 23.9414 20.7429 23.9381 20.9206C23.9347 21.0984 23.8884 21.2727 23.8029 21.4286C23.7175 21.5845 23.5956 21.7174 23.4476 21.8158C23.2996 21.9143 23.1299 21.9754 22.9531 21.994L22.8381 22H7.16209C6.98426 22.0001 6.80906 21.957 6.65151 21.8745C6.49397 21.792 6.35877 21.6725 6.25751 21.5264C6.15625 21.3802 6.09194 21.2116 6.0701 21.0351C6.04825 20.8586 6.06953 20.6795 6.13209 20.513L6.17809 20.408L8.00009 16.764V13C8.00009 11.1435 8.73759 9.36301 10.0503 8.05025C11.3631 6.7375 13.1436 6 15.0001 6Z" fill="#777777"/>
</svg>
