<svg width="32" height="31" viewBox="0 0 32 31" fill="none" xmlns="http://www.w3.org/2000/svg">
<rect x="0.5" width="31" height="31" rx="8" fill="#F37B16" fill-opacity="0.1"/>
<path d="M18.5001 23C18.5003 23.5046 18.3097 23.9906 17.9666 24.3605C17.6235 24.7305 17.1532 24.9572 16.6501 24.995L16.5001 25H14.5001C13.9955 25.0002 13.5095 24.8096 13.1395 24.4665C12.7696 24.1234 12.5429 23.6532 12.5051 23.15L12.5001 23H18.5001ZM15.5001 6C17.3151 5.99997 19.0591 6.70489 20.3643 7.96607C21.6695 9.22726 22.4339 10.9461 22.4961 12.76L22.5001 13V16.764L24.3221 20.408C24.4016 20.567 24.4414 20.7429 24.4381 20.9206C24.4347 21.0984 24.3884 21.2727 24.3029 21.4286C24.2175 21.5845 24.0956 21.7174 23.9476 21.8158C23.7996 21.9143 23.6299 21.9754 23.4531 21.994L23.3381 22H7.66209C7.48426 22.0001 7.30906 21.957 7.15151 21.8745C6.99397 21.792 6.85877 21.6725 6.75751 21.5264C6.65625 21.3802 6.59194 21.2116 6.5701 21.0351C6.54825 20.8586 6.56953 20.6795 6.63209 20.513L6.67809 20.408L8.50009 16.764V13C8.50009 11.1435 9.23759 9.36301 10.5503 8.05025C11.8631 6.7375 13.6436 6 15.5001 6Z" fill="#F37B16"/>
</svg>
