<svg width="32" height="31" viewBox="0 0 32 31" fill="none" xmlns="http://www.w3.org/2000/svg">
<path d="M12.6813 26.1935C12.3135 26.195 11.9601 26.0502 11.6989 25.7912C11.4377 25.5321 11.2902 25.1798 11.2887 24.812C11.2872 24.4441 11.432 24.0907 11.691 23.8295C11.9501 23.5683 12.3024 23.4208 12.6702 23.4193H12.6813C13.0492 23.4193 13.402 23.5655 13.6622 23.8256C13.9223 24.0857 14.0684 24.4385 14.0684 24.8064C14.0684 25.1743 13.9223 25.5271 13.6622 25.7872C13.402 26.0474 13.0492 26.1935 12.6813 26.1935ZM22.9458 24.8064C22.9458 24.4385 22.7997 24.0857 22.5395 23.8256C22.2794 23.5655 21.9266 23.4193 21.5587 23.4193H21.5476C21.2738 23.4215 21.0067 23.5047 20.78 23.6585C20.5534 23.8122 20.3773 24.0296 20.2741 24.2832C20.1708 24.5369 20.1449 24.8154 20.1996 25.0838C20.2544 25.3521 20.3874 25.5982 20.5818 25.7911C20.7762 25.984 21.0234 26.115 21.2922 26.1676C21.5609 26.2202 21.8392 26.1921 22.0921 26.0868C22.3449 25.9815 22.5609 25.8037 22.7128 25.5759C22.8647 25.348 22.9458 25.0803 22.9458 24.8064ZM25.9297 10.7802L24.8089 17.6379C24.7946 18.0398 24.6957 18.4342 24.5187 18.7954C24.3417 19.1565 24.0906 19.4763 23.7818 19.7338C23.4729 19.9914 23.1132 20.181 22.7261 20.2902C22.3391 20.3994 21.9334 20.4258 21.5354 20.3677H12.3584C11.8233 20.369 11.3059 20.1764 10.9019 19.8255C10.4979 19.4746 10.2348 18.9891 10.1613 18.4591L8.49565 6.86524C8.45212 6.53195 8.28839 6.22603 8.03523 6.00495C7.78206 5.78386 7.45688 5.66282 7.12077 5.66457H6.83225C6.61153 5.66457 6.39984 5.57689 6.24376 5.42081C6.08768 5.26473 6 5.05304 6 4.83232C6 4.61159 6.08768 4.3999 6.24376 4.24382C6.39984 4.08775 6.61153 4.00006 6.83225 4.00006H7.12077C7.85711 3.99534 8.56994 4.25906 9.12589 4.7419C9.68184 5.22473 10.0428 5.89359 10.1413 6.62333L10.3732 8.16133H23.7548C24.0794 8.16252 24.3997 8.2349 24.6933 8.37336C24.9869 8.51183 25.2465 8.71301 25.4539 8.96272C25.6613 9.21243 25.8114 9.50459 25.8936 9.81861C25.9758 10.1326 25.9881 10.4609 25.9297 10.7802ZM19.8787 12.1961C19.8014 12.1188 19.7096 12.0574 19.6086 12.0156C19.5076 11.9737 19.3993 11.9521 19.29 11.9521C19.1806 11.9521 19.0724 11.9737 18.9714 12.0156C18.8704 12.0574 18.7786 12.1188 18.7013 12.1961L16.331 14.5664L15.4433 13.6786C15.2864 13.5269 15.0762 13.443 14.858 13.4447C14.6398 13.4465 14.431 13.534 14.2766 13.6882C14.1223 13.8424 14.0346 14.0511 14.0326 14.2694C14.0306 14.4876 14.1144 14.6978 14.2659 14.8549L15.7451 16.3352C15.9015 16.4908 16.1132 16.5782 16.3338 16.5782C16.5545 16.5782 16.7661 16.4908 16.9225 16.3352L19.8787 13.3768C19.9565 13.2994 20.0183 13.2075 20.0604 13.1061C20.1026 13.0048 20.1243 12.8962 20.1243 12.7864C20.1243 12.6767 20.1026 12.5681 20.0604 12.4667C20.0183 12.3654 19.9565 12.2734 19.8787 12.1961Z" fill="#777777"/>
</svg>
