<svg width="32" height="31" viewBox="0 0 32 31" fill="none" xmlns="http://www.w3.org/2000/svg">
<rect x="0.5" width="31" height="31" rx="8" fill="#F37B16" fill-opacity="0.1"/>
<path d="M12.5146 26.1935C12.1467 26.195 11.7933 26.0502 11.5321 25.7912C11.271 25.5321 11.1234 25.1798 11.1219 24.812C11.1205 24.4441 11.2652 24.0907 11.5243 23.8295C11.7834 23.5683 12.1356 23.4208 12.5035 23.4193H12.5146C12.8825 23.4193 13.2353 23.5655 13.4954 23.8256C13.7555 24.0857 13.9017 24.4385 13.9017 24.8064C13.9017 25.1743 13.7555 25.5271 13.4954 25.7872C13.2353 26.0474 12.8825 26.1935 12.5146 26.1935ZM22.7791 24.8064C22.7791 24.4385 22.6329 24.0857 22.3728 23.8256C22.1127 23.5655 21.7598 23.4193 21.392 23.4193H21.3809C21.107 23.4215 20.8399 23.5047 20.6133 23.6585C20.3866 23.8122 20.2106 24.0296 20.1073 24.2832C20.004 24.5369 19.9781 24.8154 20.0329 25.0838C20.0877 25.3521 20.2206 25.5982 20.4151 25.7911C20.6095 25.984 20.8567 26.115 21.1254 26.1676C21.3942 26.2202 21.6725 26.1921 21.9253 26.0868C22.1781 25.9815 22.3941 25.8037 22.546 25.5759C22.698 25.348 22.779 25.0803 22.7791 24.8064ZM25.763 10.7802L24.6422 17.6379C24.6279 18.0398 24.529 18.4342 24.352 18.7954C24.175 19.1565 23.9239 19.4763 23.615 19.7338C23.3061 19.9914 22.9465 20.181 22.5594 20.2902C22.1723 20.3994 21.7666 20.4258 21.3687 20.3677H12.1917C11.6566 20.369 11.1391 20.1764 10.7351 19.8255C10.3312 19.4746 10.0681 18.9891 9.99452 18.4591L8.3289 6.86524C8.28537 6.53195 8.12165 6.22603 7.86848 6.00495C7.61531 5.78386 7.29013 5.66282 6.95402 5.66457H6.66551C6.44478 5.66457 6.23309 5.57689 6.07701 5.42081C5.92094 5.26473 5.83325 5.05304 5.83325 4.83232C5.83325 4.61159 5.92094 4.3999 6.07701 4.24382C6.23309 4.08775 6.44478 4.00006 6.66551 4.00006H6.95402C7.69036 3.99534 8.40319 4.25906 8.95914 4.7419C9.51509 5.22473 9.87608 5.89359 9.97455 6.62333L10.2065 8.16133H23.588C23.9126 8.16252 24.233 8.2349 24.5266 8.37336C24.8202 8.51183 25.0798 8.71301 25.2872 8.96272C25.4946 9.21243 25.6447 9.50459 25.7269 9.81861C25.8091 10.1326 25.8214 10.4609 25.763 10.7802ZM19.7119 12.1961C19.6346 12.1188 19.5429 12.0574 19.4419 12.0156C19.3408 11.9737 19.2326 11.9521 19.1232 11.9521C19.0139 11.9521 18.9056 11.9737 18.8046 12.0156C18.7036 12.0574 18.6118 12.1188 18.5346 12.1961L16.1643 14.5664L15.2766 13.6786C15.1197 13.5269 14.9095 13.443 14.6913 13.4447C14.473 13.4465 14.2643 13.534 14.1099 13.6882C13.9555 13.8424 13.8679 14.0511 13.8659 14.2694C13.8639 14.4876 13.9477 14.6978 14.0992 14.8549L15.5784 16.3352C15.7348 16.4908 15.9464 16.5782 16.1671 16.5782C16.3877 16.5782 16.5994 16.4908 16.7558 16.3352L19.7119 13.3768C19.7898 13.2994 19.8515 13.2075 19.8937 13.1061C19.9358 13.0048 19.9575 12.8962 19.9575 12.7864C19.9575 12.6767 19.9358 12.5681 19.8937 12.4667C19.8515 12.3654 19.7898 12.2734 19.7119 12.1961Z" fill="#F37B16"/>
</svg>
