<svg width="32" height="31" viewBox="0 0 32 31" fill="none" xmlns="http://www.w3.org/2000/svg">
<path d="M15.9733 6C10.4681 6 6 10.4681 6 15.9733C6 21.4786 10.4681 25.9467 15.9733 25.9467C21.4786 25.9467 25.9467 21.4786 25.9467 15.9733C25.9467 10.4681 21.4786 6 15.9733 6ZM15.9733 8.992C17.6289 8.992 18.9653 10.3284 18.9653 11.984C18.9653 13.6396 17.6289 14.976 15.9733 14.976C14.3178 14.976 12.9813 13.6396 12.9813 11.984C12.9813 10.3284 14.3178 8.992 15.9733 8.992ZM15.9733 23.1541C13.48 23.1541 11.2759 21.8775 9.98933 19.9427C10.0193 17.958 13.9787 16.8709 15.9733 16.8709C17.958 16.8709 21.9274 17.958 21.9573 19.9427C20.6708 21.8775 18.4667 23.1541 15.9733 23.1541Z" fill="#777777"/>
</svg>
