<svg width="31" height="31" viewBox="0 0 31 31" fill="none" xmlns="http://www.w3.org/2000/svg">
<rect width="31" height="31" rx="8" fill="#F37B16" fill-opacity="0.1"/>
<path d="M15.1401 6C9.6348 6 5.16675 10.4681 5.16675 15.9733C5.16675 21.4786 9.6348 25.9467 15.1401 25.9467C20.6454 25.9467 25.1134 21.4786 25.1134 15.9733C25.1134 10.4681 20.6454 6 15.1401 6ZM15.1401 8.992C16.7957 8.992 18.1321 10.3284 18.1321 11.984C18.1321 13.6396 16.7957 14.976 15.1401 14.976C13.4845 14.976 12.1481 13.6396 12.1481 11.984C12.1481 10.3284 13.4845 8.992 15.1401 8.992ZM15.1401 23.1541C12.6467 23.1541 10.4426 21.8775 9.15608 19.9427C9.186 17.958 13.1454 16.8709 15.1401 16.8709C17.1248 16.8709 21.0942 17.958 21.1241 19.9427C19.8375 21.8775 17.6334 23.1541 15.1401 23.1541Z" fill="#F37B16"/>
</svg>
