<svg width="28" height="28" viewBox="0 0 28 28" fill="none" xmlns="http://www.w3.org/2000/svg">
<rect width="28" height="28" rx="14" fill="white"/>
<g clip-path="url(#clip0_1_10656)">
<path d="M14 20C17.5899 20 20.5 17.0899 20.5 13.5C20.5 9.91015 17.5899 7 14 7C10.4101 7 7.5 9.91015 7.5 13.5C7.5 17.0899 10.4101 20 14 20Z" stroke="#0063C6" stroke-linecap="round" stroke-linejoin="round"/>
<path d="M12.5 12C12.5 11.7033 12.588 11.4133 12.7528 11.1666C12.9176 10.92 13.1519 10.7277 13.426 10.6142C13.7001 10.5006 14.0017 10.4709 14.2926 10.5288C14.5836 10.5867 14.8509 10.7296 15.0607 10.9393C15.2704 11.1491 15.4133 11.4164 15.4712 11.7074C15.5291 11.9983 15.4994 12.2999 15.3858 12.574C15.2723 12.8481 15.08 13.0824 14.8334 13.2472C14.5867 13.412 14.2967 13.5 14 13.5V14.5" stroke="#0063C6" stroke-linecap="round" stroke-linejoin="round"/>
<path d="M14 16C13.8517 16 13.7067 16.044 13.5833 16.1264C13.46 16.2088 13.3639 16.3259 13.3071 16.463C13.2503 16.6 13.2355 16.7508 13.2644 16.8963C13.2934 17.0418 13.3648 17.1754 13.4697 17.2803C13.5746 17.3852 13.7082 17.4567 13.8537 17.4856C13.9992 17.5145 14.15 17.4997 14.287 17.4429C14.4241 17.3861 14.5412 17.29 14.6236 17.1667C14.706 17.0433 14.75 16.8983 14.75 16.75C14.7474 16.5519 14.6676 16.3626 14.5275 16.2225C14.3874 16.0824 14.1981 16.0026 14 16Z" fill="#0063C6"/>
</g>
<defs>
<clipPath id="clip0_1_10656">
<rect width="14" height="14" fill="white" transform="translate(7 6.5)"/>
</clipPath>
</defs>
</svg>
