<svg width="28" height="28" viewBox="0 0 28 28" fill="none" xmlns="http://www.w3.org/2000/svg">
<rect width="28" height="28" rx="14" fill="white"/>
<g clip-path="url(#clip0_1_10633)">
<path d="M15.8818 13.8877C16.5491 12.9351 16.9017 11.8167 16.9017 10.6537V8.06051C16.9017 7.93246 16.8128 7.82147 16.6878 7.79358L13.157 7.00649C13.1179 6.99784 13.0772 6.99784 13.038 7.00649L9.50742 7.79358C9.44672 7.80711 9.39244 7.84092 9.35354 7.88945C9.31464 7.93798 9.29345 7.99832 9.29346 8.06051V10.6537C9.29346 11.8167 9.64614 12.9351 10.3134 13.8876C10.9806 14.8403 11.9111 15.5539 13.0042 15.9514C13.0341 15.9623 13.0657 15.9678 13.0975 15.9679C13.1292 15.9679 13.1609 15.9623 13.191 15.9514C14.2841 15.554 15.2146 14.8403 15.8818 13.8877ZM13.0975 15.4024C12.151 15.0374 11.3447 14.4068 10.7614 13.5739C10.1588 12.7138 9.84033 11.704 9.84033 10.6537V8.2797L13.0975 7.55358L16.3549 8.2797V10.6537C16.3549 11.7038 16.0364 12.7137 15.4338 13.5739C14.8504 14.4068 14.0441 15.0374 13.0975 15.4024Z" fill="#0063C6"/>
<path d="M15.8897 8.87179C15.8898 8.80959 15.8686 8.74925 15.8297 8.70072C15.7908 8.65219 15.7365 8.61838 15.6758 8.60486L13.1572 8.04335C13.1179 8.0347 13.0773 8.0347 13.0381 8.04335L10.5194 8.60486C10.372 8.63778 10.2791 8.78388 10.312 8.93129C10.3449 9.07867 10.4911 9.1715 10.6383 9.13861L13.0976 8.59045L15.3429 9.09097V10.6537C15.3429 11.4952 15.0877 12.3042 14.605 12.9934C14.2172 13.5471 13.6979 13.9958 13.0976 14.2973C12.4973 13.9959 11.9781 13.5471 11.5903 12.9934C11.1727 12.3973 10.9219 11.7005 10.8651 10.9785C10.8603 10.9182 10.8569 10.8573 10.8548 10.7973C10.8496 10.6463 10.7222 10.5282 10.5721 10.5334C10.4212 10.5386 10.303 10.6652 10.3083 10.8161C10.3106 10.8841 10.3145 10.9532 10.3198 11.0214C10.3844 11.8407 10.6688 12.6311 11.1423 13.3071C11.61 13.9748 12.2464 14.508 12.9828 14.849C13.0188 14.8656 13.058 14.8743 13.0976 14.8743C13.1373 14.8743 13.1765 14.8656 13.2125 14.849C13.949 14.5079 14.5854 13.9748 15.053 13.3071C15.6004 12.5256 15.8898 11.608 15.8898 10.6537V8.87179H15.8897Z" fill="#0063C6"/>
<path d="M12.3187 12.0732C12.3443 12.1036 12.3763 12.128 12.4124 12.1447C12.4484 12.1614 12.4877 12.1701 12.5275 12.1701C12.5952 12.1701 12.6606 12.1449 12.7109 12.0995L14.6933 10.3059C14.8052 10.2046 14.8139 10.0317 14.7126 9.91965C14.6113 9.80773 14.4384 9.79907 14.3264 9.90032L12.5536 11.5041L12.0477 10.9056C11.9503 10.7904 11.7777 10.7759 11.6624 10.8734C11.5471 10.9709 11.5326 11.1434 11.63 11.2588L12.3187 12.0732ZM10.7951 16.0496C10.651 15.8601 10.4415 15.7396 10.2054 15.7101C9.96924 15.6808 9.7366 15.746 9.55033 15.8942C9.46547 15.9616 9.39402 16.0443 9.33968 16.1381L9.25937 16.0334C9.18784 15.94 9.149 15.8257 9.14882 15.708V13.2412C9.14882 12.7372 8.73877 12.3272 8.23483 12.3272C7.7608 12.3272 7.36967 12.6831 7.32491 13.1549L7.03225 16.2414C7.00649 16.5117 7.08275 16.78 7.2478 16.9979L9.57202 20.0243V20.7266C9.57202 20.8777 9.69441 21.0001 9.84546 21.0001C9.99637 21.0001 10.1189 20.8777 10.1189 20.7266V19.9313C10.1189 19.8711 10.0989 19.8125 10.0623 19.7648L7.68262 16.6662C7.60166 16.5595 7.56384 16.4263 7.57666 16.293L7.86943 13.2066C7.8777 13.1155 7.91982 13.0308 7.98746 12.9692C8.05511 12.9077 8.14337 12.8737 8.23483 12.8741C8.43733 12.8741 8.60194 13.0388 8.60194 13.2412V15.708C8.60236 15.9461 8.68098 16.1774 8.82572 16.3665L9.39811 17.1119L9.40068 17.1155L9.86252 17.7169C9.95461 17.8367 10.1262 17.8592 10.246 17.7672C10.3657 17.6752 10.3883 17.5036 10.2963 17.3838L9.83293 16.7804C9.72561 16.6383 9.75123 16.4332 9.89096 16.3222C9.92534 16.2946 9.96491 16.2743 10.0073 16.2624C10.0497 16.2504 10.0941 16.2472 10.1378 16.2527C10.2268 16.2638 10.3057 16.3093 10.36 16.3807L11.4639 17.8314C11.6811 18.1169 11.8007 18.4717 11.8007 18.8305V20.7266C11.8007 20.8777 11.9231 21.0001 12.0742 21.0001C12.2252 21.0001 12.3476 20.8777 12.3476 20.7266V18.8305C12.3476 18.3528 12.1884 17.8804 11.8991 17.5003L10.7951 16.0496ZM19.0865 16.2414L18.7937 13.1549C18.7489 12.6831 18.3577 12.3272 17.8838 12.3272C17.3798 12.3272 16.9698 12.7372 16.9698 13.2412V15.708C16.9698 15.8251 16.9305 15.9406 16.8592 16.0334L16.7788 16.1381C16.7245 16.0444 16.653 15.9616 16.5682 15.8942C16.382 15.746 16.1493 15.6808 15.9132 15.7102C15.677 15.7396 15.4676 15.8601 15.3235 16.0496L14.2196 17.5003C13.9303 17.8804 13.771 18.3529 13.771 18.8306V20.7266C13.771 20.8777 13.8935 21.0001 14.0444 21.0001C14.1954 21.0001 14.3179 20.8777 14.3179 20.7266V18.8305C14.3179 18.4718 14.4375 18.1169 14.6547 17.8314L15.7586 16.3807C15.7852 16.3456 15.8186 16.3161 15.8568 16.2941C15.895 16.2722 15.9372 16.2581 15.9809 16.2527C16.0699 16.2417 16.1576 16.2663 16.2278 16.3222C16.3673 16.4332 16.3931 16.6383 16.2856 16.7804L15.8224 17.3838C15.7304 17.5036 15.753 17.6752 15.8727 17.7672C15.9925 17.8592 16.1641 17.8367 16.2562 17.7169L16.7179 17.1155C16.7188 17.1144 16.7195 17.1133 16.7204 17.1122L17.293 16.3666C17.4376 16.1775 17.5162 15.9461 17.5167 15.708V13.2412C17.5167 13.0388 17.6814 12.8741 17.8838 12.8741C18.0741 12.8741 18.2312 13.017 18.2493 13.2066L18.542 16.293C18.5546 16.4267 18.517 16.5592 18.437 16.6648L16.0563 19.7648C16.0197 19.8126 15.9998 19.8712 15.9998 19.9314V20.7266C15.9998 20.8777 16.1222 21.0001 16.2733 21.0001C16.4243 21.0001 16.5467 20.8777 16.5467 20.7266V20.0242L18.8719 16.9965C19.0357 16.7806 19.1123 16.5111 19.0865 16.2414ZM10.4271 10.0653C10.5234 10.1294 10.6537 10.1254 10.7453 10.0548C10.8315 9.98834 10.872 9.87235 10.843 9.76702C10.8119 9.65412 10.7108 9.57124 10.5934 9.56484C10.4772 9.55855 10.3675 9.62945 10.3249 9.73743C10.2781 9.85611 10.3214 9.99411 10.4271 10.0653Z" fill="#0063C6"/>
</g>
<defs>
<clipPath id="clip0_1_10633">
<rect width="14" height="14" fill="white" transform="translate(7 7)"/>
</clipPath>
</defs>
</svg>
