<svg width="28" height="28" viewBox="0 0 28 28" fill="none" xmlns="http://www.w3.org/2000/svg">
<rect width="28" height="28" rx="14" fill="white"/>
<g clip-path="url(#clip0_1_10647)">
<path d="M20.0169 13.1037C19.967 11.5819 19.3383 10.1366 18.259 9.0627C17.1209 7.92433 15.6082 7.29761 14 7.29761C10.7517 7.29761 8.09766 9.88301 7.98325 13.1037C7.73279 13.2146 7.51988 13.3958 7.37032 13.6253C7.22076 13.8548 7.14098 14.1228 7.14062 14.3967V15.9853C7.14103 16.3604 7.29023 16.72 7.55548 16.9853C7.82073 17.2505 8.18038 17.3997 8.5555 17.4001C8.79821 17.3998 9.03089 17.3033 9.20251 17.1317C9.37414 16.9601 9.47068 16.7274 9.47097 16.4847V13.8971C9.47097 13.423 9.10741 13.0365 8.64519 12.9906C8.81581 10.1847 11.1516 7.95386 14 7.95386C15.4332 7.95386 16.7809 8.51254 17.7953 9.52689C18.7267 10.4583 19.2718 11.6724 19.3539 12.9908C18.8921 13.0372 18.5292 13.4235 18.5292 13.8971V16.4845C18.5292 16.9624 18.8984 17.3514 19.3661 17.3918V18.0457C19.3657 18.3997 19.2249 18.7391 18.9745 18.9895C18.7241 19.2398 18.3847 19.3806 18.0307 19.3809H17.0417C16.975 19.1865 16.8491 19.0179 16.6817 18.8987C16.5143 18.7795 16.3138 18.7158 16.1083 18.7164H15.0889C14.9426 18.7164 14.8021 18.7474 14.6735 18.8074C14.5013 18.8869 14.3554 19.0141 14.2531 19.1739C14.1507 19.3336 14.0962 19.5193 14.096 19.709C14.096 19.9746 14.1995 20.224 14.3869 20.4106C14.4788 20.5032 14.5882 20.5767 14.7087 20.6267C14.8292 20.6767 14.9584 20.7023 15.0889 20.702H16.1083C16.5309 20.702 16.9034 20.4287 17.0423 20.0372H18.0307C19.129 20.0372 20.0224 19.1438 20.0224 18.0457V17.275C20.2713 17.1634 20.4828 16.9823 20.6313 16.7534C20.7797 16.5246 20.8589 16.2577 20.8593 15.9848V14.3963C20.8593 13.8201 20.5124 13.324 20.0169 13.1037ZM8.8145 13.8971V16.4845C8.8145 16.6273 8.69834 16.7437 8.55528 16.7437C8.35415 16.7434 8.16133 16.6634 8.01911 16.5212C7.87689 16.379 7.79689 16.1862 7.79666 15.985V14.3965C7.79689 14.1954 7.87689 14.0025 8.01911 13.8603C8.16133 13.7181 8.35415 13.6381 8.55528 13.6379C8.69834 13.6379 8.8145 13.7542 8.8145 13.8971ZM16.4375 19.7795C16.4212 19.8548 16.3796 19.9223 16.3197 19.9708C16.2598 20.0193 16.1851 20.0459 16.1081 20.0461H15.0887C14.999 20.0461 14.9148 20.0111 14.8505 19.9468C14.8192 19.9158 14.7943 19.8788 14.7774 19.838C14.7606 19.7973 14.7519 19.7536 14.752 19.7095C14.7523 19.6203 14.7878 19.5348 14.8509 19.4718C14.914 19.4087 14.9995 19.3732 15.0887 19.373H16.1081C16.1978 19.373 16.282 19.4078 16.3461 19.4721C16.4095 19.5354 16.4445 19.6198 16.4445 19.7095C16.4447 19.7335 16.4421 19.7576 16.4375 19.7795ZM20.2031 15.985C20.2028 16.1862 20.1228 16.379 19.9806 16.5212C19.8384 16.6634 19.6456 16.7434 19.4444 16.7437C19.3757 16.7436 19.3098 16.7163 19.2612 16.6677C19.2126 16.6191 19.1853 16.5532 19.1852 16.4845V13.8971C19.1852 13.7542 19.3014 13.6379 19.4444 13.6379C19.6456 13.6381 19.8384 13.7181 19.9806 13.8603C20.1228 14.0025 20.2028 14.1954 20.2031 14.3965V15.985Z" fill="#0063C6"/>
<path d="M16.1247 16.0982C16.4933 16.0978 16.8467 15.9511 17.1074 15.6905C17.368 15.4298 17.5146 15.0764 17.5151 14.7078V11.8748C17.5151 11.5042 17.3702 11.1551 17.1073 10.8921C16.8444 10.6292 16.4955 10.4844 16.1247 10.4844H11.8752C11.5066 10.4848 11.1532 10.6314 10.8925 10.8921C10.6319 11.1527 10.4853 11.5061 10.4849 11.8748V14.7078C10.4853 15.0764 10.6319 15.4298 10.8925 15.6905C11.1532 15.9511 11.5066 16.0978 11.8752 16.0982H11.9013V16.8323C11.9008 16.9219 11.9181 17.0108 11.9522 17.0937C11.9862 17.1766 12.0363 17.252 12.0995 17.3155C12.1628 17.379 12.238 17.4294 12.3208 17.4638C12.4036 17.4981 12.4924 17.5157 12.582 17.5157C12.6716 17.5158 12.7603 17.498 12.8428 17.4631C12.9254 17.4283 13 17.3772 13.0624 17.3129L14.2837 16.0982H16.1247ZM13.9173 15.5373L12.5956 16.8517C12.5897 16.8579 12.5853 16.8625 12.5728 16.857C12.5577 16.8509 12.5577 16.841 12.5577 16.8323V15.77C12.5577 15.683 12.5232 15.5995 12.4616 15.538C12.4001 15.4765 12.3166 15.4419 12.2296 15.4419H11.8755C11.6808 15.4417 11.4942 15.3643 11.3566 15.2266C11.219 15.089 11.1416 14.9024 11.1413 14.7078V11.8748C11.1416 11.6801 11.219 11.4935 11.3566 11.3559C11.4942 11.2183 11.6808 11.1409 11.8755 11.1406H16.1249C16.3205 11.1406 16.5044 11.2172 16.6436 11.3561C16.7827 11.4952 16.859 11.6794 16.859 11.8748V14.7078C16.8588 14.9024 16.7814 15.089 16.6437 15.2266C16.5061 15.3643 16.3195 15.4417 16.1249 15.4419H14.1487C14.0619 15.4419 13.9787 15.4762 13.9173 15.5373Z" fill="#0063C6"/>
<path d="M12.406 12.8596C12.1391 12.8596 11.9219 13.0771 11.9219 13.3437C11.9219 13.6104 12.1393 13.8278 12.406 13.8278C12.6731 13.8278 12.8905 13.6104 12.8905 13.3437C12.8905 13.0771 12.6733 12.8596 12.406 12.8596ZM13.9998 12.8596C13.7329 12.8596 13.5157 13.0771 13.5157 13.3437C13.5157 13.6104 13.7331 13.8278 13.9998 13.8278C14.2671 13.8278 14.4843 13.6104 14.4843 13.3437C14.4843 13.0771 14.2671 12.8596 13.9998 12.8596ZM15.5936 12.8596C15.3267 12.8596 15.1095 13.0771 15.1095 13.3437C15.1095 13.6104 15.3269 13.8278 15.5936 13.8278C15.8607 13.8278 16.0781 13.6104 16.0781 13.3437C16.0781 13.0771 15.8607 12.8596 15.5936 12.8596Z" fill="#0063C6"/>
</g>
<defs>
<clipPath id="clip0_1_10647">
<rect width="14" height="14" fill="white" transform="translate(7 7)"/>
</clipPath>
</defs>
</svg>
