<svg width="28" height="28" viewBox="0 0 28 28" fill="none" xmlns="http://www.w3.org/2000/svg">
<rect width="28" height="28" rx="14" fill="white"/>
<path d="M10.6736 9.40721C10.5266 9.40721 10.4074 9.52638 10.4074 9.6734C10.4074 9.9963 10.1447 10.259 9.82181 10.259C9.49891 10.259 9.2362 9.9963 9.2362 9.6734C9.2362 9.3505 9.49891 9.0878 9.82181 9.0878C9.9688 9.0878 10.088 8.96863 10.088 8.82161C10.088 8.67459 9.96883 8.55542 9.82181 8.55542C9.20536 8.55542 8.70386 9.05695 8.70386 9.67337C8.70386 10.2898 9.20539 10.7913 9.82181 10.7913C10.4382 10.7913 10.9398 10.2898 10.9398 9.67337C10.9398 9.52638 10.8206 9.40721 10.6736 9.40721Z" fill="#0063C6"/>
<path d="M10.6736 12.5303C10.5266 12.5303 10.4074 12.6494 10.4074 12.7965C10.4074 13.1194 10.1447 13.3821 9.82181 13.3821C9.49891 13.3821 9.2362 13.1194 9.2362 12.7965C9.2362 12.4735 9.49891 12.2108 9.82181 12.2108C9.9688 12.2108 10.088 12.0917 10.088 11.9447C10.088 11.7976 9.96883 11.6785 9.82181 11.6785C9.20536 11.6785 8.70386 12.18 8.70386 12.7964C8.70386 13.4128 9.20539 13.9144 9.82181 13.9144C10.4382 13.9144 10.9398 13.4128 10.9398 12.7964C10.9398 12.6495 10.8206 12.5303 10.6736 12.5303Z" fill="#0063C6"/>
<path d="M13.7964 13.0981H11.8089C11.6619 13.0981 11.5427 13.2173 11.5427 13.3643C11.5427 13.5114 11.6619 13.6305 11.8089 13.6305H13.7964C13.9434 13.6305 14.0626 13.5114 14.0626 13.3643C14.0626 13.2173 13.9434 13.0981 13.7964 13.0981Z" fill="#0063C6"/>
<path d="M13.7964 11.9624H11.8089C11.6619 11.9624 11.5427 12.0816 11.5427 12.2286C11.5427 12.3756 11.6619 12.4948 11.8089 12.4948H13.7964C13.9434 12.4948 14.0626 12.3756 14.0626 12.2286C14.0626 12.0816 13.9434 11.9624 13.7964 11.9624Z" fill="#0063C6"/>
<path d="M13.2285 16.2214H11.8089C11.6619 16.2214 11.5427 16.3406 11.5427 16.4876C11.5427 16.6346 11.6619 16.7538 11.8089 16.7538H13.2285C13.3755 16.7538 13.4947 16.6346 13.4947 16.4876C13.4947 16.3406 13.3755 16.2214 13.2285 16.2214Z" fill="#0063C6"/>
<path d="M13.7964 15.0857H11.8089C11.6619 15.0857 11.5427 15.2049 11.5427 15.3519C11.5427 15.4989 11.6619 15.6181 11.8089 15.6181H13.7964C13.9434 15.6181 14.0626 15.4989 14.0626 15.3519C14.0626 15.2049 13.9434 15.0857 13.7964 15.0857Z" fill="#0063C6"/>
<path d="M16.3517 9.9751H11.8089C11.6619 9.9751 11.5427 10.0943 11.5427 10.2413C11.5427 10.3883 11.6619 10.5075 11.8089 10.5075H16.3517C16.4987 10.5075 16.6179 10.3883 16.6179 10.2413C16.6179 10.0943 16.4987 9.9751 16.3517 9.9751Z" fill="#0063C6"/>
<path d="M15.216 8.83936H11.8089C11.6619 8.83936 11.5427 8.95852 11.5427 9.10555C11.5427 9.25257 11.6619 9.37174 11.8089 9.37174H15.216C15.363 9.37174 15.4822 9.25257 15.4822 9.10555C15.4822 8.95852 15.363 8.83936 15.216 8.83936Z" fill="#0063C6"/>
<path d="M10.6736 15.6536C10.5266 15.6536 10.4074 15.7727 10.4074 15.9197C10.4074 16.2426 10.1447 16.5053 9.82181 16.5053C9.49891 16.5053 9.2362 16.2426 9.2362 15.9197C9.2362 15.5968 9.49891 15.3341 9.82181 15.3341C9.9688 15.3341 10.088 15.215 10.088 15.0679C10.088 14.9209 9.96883 14.8018 9.82181 14.8018C9.20536 14.8018 8.70386 15.3033 8.70386 15.9197C8.70386 16.5361 9.20539 17.0377 9.82181 17.0377C10.4382 17.0377 10.9398 16.5361 10.9398 15.9197C10.9398 15.7727 10.8206 15.6536 10.6736 15.6536Z" fill="#0063C6"/>
<path d="M17.4875 6H7.83403C7.37417 6 7 6.37413 7 6.83403V18.7589C7 19.2188 7.37413 19.5929 7.83403 19.5929H12.6608C12.8078 19.5929 12.927 19.4737 12.927 19.3267C12.927 19.1797 12.8078 19.0605 12.6608 19.0605H7.83403C7.66768 19.0605 7.53235 18.9252 7.53235 18.7589V6.83403C7.53235 6.66768 7.66768 6.53235 7.83403 6.53235H17.4875C17.6538 6.53235 17.7892 6.66768 17.7892 6.83403V15.6358C17.7892 15.7828 17.9083 15.9019 18.0554 15.9019C18.2024 15.9019 18.3216 15.7828 18.3216 15.6358V6.83403C18.3215 6.37413 17.9474 6 17.4875 6Z" fill="#0063C6"/>
<path d="M20.0005 16.794C19.7531 16.7693 19.5059 16.8394 19.3102 16.988C19.1543 16.7265 18.8885 16.5409 18.5809 16.5101C18.3334 16.4854 18.0862 16.5556 17.8906 16.7041C17.7347 16.4425 17.4688 16.257 17.1613 16.2262C16.9724 16.2073 16.7837 16.2437 16.6179 16.3281V12.9383C16.6179 12.6631 16.5008 12.3992 16.2966 12.2144C16.0926 12.0298 15.8176 11.9397 15.5422 11.9673C15.0508 12.0165 14.6659 12.4608 14.6659 12.9788V16.3771L13.8835 17.1596C13.4677 17.5754 13.2998 18.1653 13.4345 18.7378L14.0286 21.2624C14.2692 22.2855 15.1713 22.9999 16.2223 22.9999H18.6231C19.8658 22.9999 20.8768 21.989 20.8768 20.7463V17.8056C20.8768 17.2875 20.4919 16.8432 20.0005 16.794ZM20.3444 20.7462C20.3444 21.6953 19.5723 22.4675 18.6231 22.4675H16.2223C15.4196 22.4675 14.7306 21.9218 14.5468 21.1404L13.9527 18.6158C13.8605 18.2241 13.9754 17.8204 14.2599 17.536L14.6659 17.1299V18.0489C14.6659 18.1959 14.7851 18.3151 14.9321 18.3151C15.0791 18.3151 15.1983 18.1959 15.1983 18.0489V12.9787C15.1983 12.7309 15.3727 12.5193 15.5953 12.497C15.7231 12.4842 15.8454 12.5241 15.9395 12.6092C16.0323 12.6932 16.0856 12.8132 16.0856 12.9383V17.6231C16.0856 17.7701 16.2048 17.8893 16.3518 17.8893C16.4988 17.8893 16.618 17.7701 16.618 17.6231V17.1972C16.618 17.0721 16.6712 16.9521 16.7641 16.8681C16.8582 16.7829 16.9804 16.743 17.1083 16.7559C17.3309 16.7782 17.5053 16.9898 17.5053 17.2377V17.9069C17.5053 18.0539 17.6244 18.1731 17.7715 18.1731C17.9184 18.1731 18.0376 18.054 18.0376 17.9069V17.481C18.0376 17.3559 18.0909 17.236 18.1838 17.1519C18.2779 17.0668 18.4001 17.0269 18.528 17.0397C18.7505 17.062 18.9249 17.2736 18.9249 17.5215V18.1908C18.9249 18.3378 19.0441 18.457 19.1911 18.457C19.3381 18.457 19.4573 18.3378 19.4573 18.1908V17.7649C19.4573 17.6398 19.5105 17.5198 19.6034 17.4358C19.6975 17.3507 19.8197 17.3107 19.9476 17.3236C20.1702 17.3459 20.3446 17.5575 20.3446 17.8054V20.7462H20.3444Z" fill="#0063C6"/>
</svg>
