<svg width="28" height="28" viewBox="0 0 28 28" fill="none" xmlns="http://www.w3.org/2000/svg">
<rect width="28" height="28" rx="14" fill="white"/>
<g clip-path="url(#clip0_1_10665)">
<path d="M14 21.125C12.3755 21.125 10.8176 20.4797 9.66897 19.331C8.52031 18.1824 7.875 16.6245 7.875 15C7.875 13.3755 8.52031 11.8176 9.66897 10.669C10.8176 9.52031 12.3755 8.875 14 8.875C15.6245 8.875 17.1824 9.52031 18.331 10.669C19.4797 11.8176 20.125 13.3755 20.125 15C20.125 16.6245 19.4797 18.1824 18.331 19.331C17.1824 20.4797 15.6245 21.125 14 21.125ZM14 22C15.8565 22 17.637 21.2625 18.9497 19.9497C20.2625 18.637 21 16.8565 21 15C21 13.1435 20.2625 11.363 18.9497 10.0503C17.637 8.7375 15.8565 8 14 8C12.1435 8 10.363 8.7375 9.05025 10.0503C7.7375 11.363 7 13.1435 7 15C7 16.8565 7.7375 18.637 9.05025 19.9497C10.363 21.2625 12.1435 22 14 22Z" fill="#0063C6"/>
<path d="M14.8137 13.7645L12.81 14.0156L12.7382 14.3481L13.132 14.4207C13.3892 14.482 13.44 14.5748 13.384 14.8311L12.7382 17.8656C12.5685 18.6505 12.8301 19.0197 13.4452 19.0197C13.9221 19.0197 14.476 18.7993 14.7271 18.4965L14.8041 18.1325C14.6291 18.2865 14.3736 18.3478 14.2038 18.3478C13.9632 18.3478 13.8757 18.1789 13.9378 17.8814L14.8137 13.7645ZM14.875 11.9375C14.875 12.1696 14.7828 12.3921 14.6187 12.5562C14.4546 12.7203 14.232 12.8125 14 12.8125C13.7679 12.8125 13.5453 12.7203 13.3812 12.5562C13.2171 12.3921 13.125 12.1696 13.125 11.9375C13.125 11.7054 13.2171 11.4829 13.3812 11.3188C13.5453 11.1547 13.7679 11.0625 14 11.0625C14.232 11.0625 14.4546 11.1547 14.6187 11.3188C14.7828 11.4829 14.875 11.7054 14.875 11.9375Z" fill="#0063C6"/>
</g>
<defs>
<clipPath id="clip0_1_10665">
<rect width="14" height="14" fill="white" transform="translate(7 8)"/>
</clipPath>
</defs>
</svg>
