<svg width="28" height="28" viewBox="0 0 28 28" fill="none" xmlns="http://www.w3.org/2000/svg">
<rect width="28" height="28" rx="14" fill="white"/>
<g clip-path="url(#clip0_1_10641)">
<path d="M14 15.75C14.9665 15.75 15.75 14.9665 15.75 14C15.75 13.0335 14.9665 12.25 14 12.25C13.0335 12.25 12.25 13.0335 12.25 14C12.25 14.9665 13.0335 15.75 14 15.75Z" stroke="#0063C6" stroke-linecap="round" stroke-linejoin="round"/>
<path d="M18.3166 15.7499C18.2389 15.9259 18.2158 16.121 18.2501 16.3103C18.2844 16.4995 18.3746 16.6741 18.5091 16.8116L18.5441 16.8466C18.6526 16.9549 18.7386 17.0836 18.7973 17.2252C18.856 17.3669 18.8863 17.5187 18.8863 17.672C18.8863 17.8253 18.856 17.9771 18.7973 18.1188C18.7386 18.2604 18.6526 18.3891 18.5441 18.4974C18.4357 18.6059 18.3071 18.6919 18.1654 18.7507C18.0238 18.8094 17.872 18.8396 17.7187 18.8396C17.5654 18.8396 17.4135 18.8094 17.2719 18.7507C17.1303 18.6919 17.0016 18.6059 16.8933 18.4974L16.8583 18.4624C16.7208 18.3279 16.5462 18.2377 16.3569 18.2034C16.1677 18.1691 15.9725 18.1923 15.7966 18.2699C15.6241 18.3439 15.4769 18.4666 15.3733 18.6231C15.2696 18.7796 15.214 18.963 15.2133 19.1508V19.2499C15.2133 19.5593 15.0903 19.8561 14.8715 20.0749C14.6528 20.2937 14.356 20.4166 14.0466 20.4166C13.7372 20.4166 13.4404 20.2937 13.2216 20.0749C13.0028 19.8561 12.8799 19.5593 12.8799 19.2499V19.1974C12.8754 19.0043 12.8129 18.8171 12.7005 18.66C12.5882 18.5029 12.4312 18.3833 12.2499 18.3166C12.074 18.2389 11.8788 18.2158 11.6896 18.2501C11.5003 18.2844 11.3257 18.3746 11.1883 18.5091L11.1533 18.5441C11.0449 18.6526 10.9162 18.7386 10.7746 18.7973C10.633 18.856 10.4812 18.8863 10.3278 18.8863C10.1745 18.8863 10.0227 18.856 9.88107 18.7973C9.73944 18.7386 9.61077 18.6526 9.50242 18.5441C9.39395 18.4357 9.30789 18.3071 9.24918 18.1654C9.19047 18.0238 9.16025 17.872 9.16025 17.7187C9.16025 17.5654 9.19047 17.4135 9.24918 17.2719C9.30789 17.1303 9.39395 17.0016 9.50242 16.8933L9.53742 16.8583C9.6719 16.7208 9.76211 16.5462 9.79642 16.3569C9.83073 16.1677 9.80757 15.9725 9.72992 15.7966C9.65597 15.6241 9.53319 15.4769 9.37669 15.3733C9.22019 15.2696 9.03679 15.214 8.84909 15.2133H8.74992C8.4405 15.2133 8.14375 15.0903 7.92496 14.8715C7.70617 14.6528 7.58325 14.356 7.58325 14.0466C7.58325 13.7372 7.70617 13.4404 7.92496 13.2216C8.14375 13.0028 8.4405 12.8799 8.74992 12.8799H8.80242C8.9955 12.8754 9.18275 12.8129 9.33984 12.7005C9.49693 12.5882 9.61659 12.4312 9.68325 12.2499C9.7609 12.074 9.78407 11.8788 9.74975 11.6896C9.71544 11.5003 9.62523 11.3257 9.49075 11.1883L9.45575 11.1533C9.34728 11.0449 9.26123 10.9162 9.20252 10.7746C9.1438 10.633 9.11358 10.4812 9.11358 10.3278C9.11358 10.1745 9.1438 10.0227 9.20252 9.88107C9.26123 9.73944 9.34728 9.61077 9.45575 9.50242C9.5641 9.39395 9.69277 9.30789 9.8344 9.24918C9.97604 9.19047 10.1279 9.16025 10.2812 9.16025C10.4345 9.16025 10.5863 9.19047 10.7279 9.24918C10.8696 9.30789 10.9982 9.39395 11.1066 9.50242L11.1416 9.53742C11.2791 9.6719 11.4537 9.76211 11.6429 9.79642C11.8321 9.83073 12.0273 9.80757 12.2033 9.72992H12.2499C12.4225 9.65597 12.5696 9.53319 12.6732 9.37669C12.7769 9.22019 12.8325 9.03679 12.8333 8.84909V8.74992C12.8333 8.4405 12.9562 8.14375 13.175 7.92496C13.3938 7.70617 13.6905 7.58325 13.9999 7.58325C14.3093 7.58325 14.6061 7.70617 14.8249 7.92496C15.0437 8.14375 15.1666 8.4405 15.1666 8.74992V8.80242C15.1673 8.99013 15.223 9.17352 15.3266 9.33002C15.4302 9.48653 15.5774 9.60931 15.7499 9.68325C15.9259 9.7609 16.121 9.78407 16.3103 9.74975C16.4995 9.71544 16.6741 9.62523 16.8116 9.49075L16.8466 9.45575C16.9549 9.34728 17.0836 9.26123 17.2252 9.20252C17.3669 9.1438 17.5187 9.11358 17.672 9.11358C17.8253 9.11358 17.9771 9.1438 18.1188 9.20252C18.2604 9.26123 18.3891 9.34728 18.4974 9.45575C18.6059 9.5641 18.6919 9.69277 18.7507 9.8344C18.8094 9.97604 18.8396 10.1279 18.8396 10.2812C18.8396 10.4345 18.8094 10.5863 18.7507 10.7279C18.6919 10.8696 18.6059 10.9982 18.4974 11.1066L18.4624 11.1416C18.3279 11.2791 18.2377 11.4537 18.2034 11.6429C18.1691 11.8321 18.1923 12.0273 18.2699 12.2033V12.2499C18.3439 12.4225 18.4666 12.5696 18.6231 12.6732C18.7796 12.7769 18.963 12.8325 19.1508 12.8333H19.2499C19.5593 12.8333 19.8561 12.9562 20.0749 13.175C20.2937 13.3938 20.4166 13.6905 20.4166 13.9999C20.4166 14.3093 20.2937 14.6061 20.0749 14.8249C19.8561 15.0437 19.5593 15.1666 19.2499 15.1666H19.1974C19.0097 15.1673 18.8263 15.223 18.6698 15.3266C18.5133 15.4302 18.3905 15.5774 18.3166 15.7499Z" stroke="#0063C6" stroke-linecap="round" stroke-linejoin="round"/>
</g>
<defs>
<clipPath id="clip0_1_10641">
<rect width="14" height="14" fill="white" transform="translate(7 7)"/>
</clipPath>
</defs>
</svg>
