<svg width="28" height="28" viewBox="0 0 28 28" fill="none" xmlns="http://www.w3.org/2000/svg">
<rect width="28" height="28" rx="14" fill="white"/>
<g clip-path="url(#clip0_1_10672)">
<path d="M10.3467 11.533H17.0423C17.3292 11.533 17.5619 11.3003 17.5619 11.0134C17.5619 10.7266 17.3292 10.4939 17.0423 10.4939H10.3467C10.0598 10.4939 9.82715 10.7266 9.82715 11.0134C9.82715 11.3003 10.0598 11.533 10.3467 11.533ZM14.8401 14.252C14.8401 13.9652 14.6074 13.7325 14.3205 13.7325H10.3467C10.0598 13.7325 9.82715 13.9652 9.82715 14.252C9.82715 14.5389 10.0598 14.7716 10.3467 14.7716H14.3205C14.6074 14.7716 14.8401 14.5389 14.8401 14.252Z" fill="#0063C6"/>
<path d="M20.3063 15.8514C20.3621 15.2409 20.3995 14.5294 20.4004 13.7C20.3987 12.1395 20.2677 10.9968 20.128 10.1571C19.8836 8.77352 18.6268 7.5168 17.2432 7.27234C16.4035 7.13262 15.2608 7.00164 13.7 7C12.1395 7.00164 10.9966 7.13262 10.1568 7.27234C8.77352 7.5168 7.5168 8.77352 7.27234 10.1571C7.13262 10.9968 7.00191 12.1395 7 13.7C7.00191 15.2605 7.13262 16.4035 7.27234 17.2432C7.5168 18.6268 8.77352 19.8836 10.1571 20.128C10.9968 20.2677 12.1395 20.3984 13.7003 20.4004C14.5294 20.3995 15.2409 20.3621 15.8512 20.3063C16.3937 20.7402 17.0816 21 17.8303 21C19.5809 21 21.0003 19.5809 21.0003 17.8303C21.0003 17.0816 20.7405 16.3937 20.3066 15.8514H20.3063ZM13.7003 19.3613C12.4693 19.3599 11.3679 19.2757 10.3335 19.104C9.87383 19.0217 9.40816 18.7638 9.02234 18.378C8.63652 17.9922 8.37895 17.5268 8.29637 17.0669C8.12465 16.0336 8.0407 14.9321 8.03906 13.7C8.04043 12.4685 8.12465 11.3671 8.29637 10.3332C8.37867 9.87355 8.63652 9.40816 9.02234 9.02234C9.40816 8.63652 9.87355 8.37895 10.3335 8.29637C11.3673 8.12465 12.4688 8.0407 13.7003 8.03906C14.9313 8.04043 16.0327 8.12465 17.0671 8.29637C17.5268 8.37867 17.9922 8.63652 18.3783 9.02234C18.7641 9.40816 19.0217 9.87355 19.1043 10.3335C19.276 11.3679 19.3599 12.469 19.3616 13.7003C19.361 14.1624 19.3484 14.6057 19.3244 15.0344C18.8792 14.796 18.3706 14.6609 17.8303 14.6609C16.0798 14.6609 14.6604 16.08 14.6604 17.8306C14.6604 18.3709 14.7957 18.8792 15.0339 19.3244C14.6051 19.3484 14.1619 19.361 13.7 19.3613H13.7003ZM17.8303 19.9609C16.6554 19.9609 15.6994 19.0053 15.6994 17.8303C15.6994 16.6554 16.6554 15.6997 17.8303 15.6997C19.0053 15.6997 19.9612 16.6554 19.9612 17.8303C19.9612 19.0053 19.0053 19.9609 17.8303 19.9609Z" fill="#0063C6"/>
<path d="M18.1091 18.4362C18.0429 18.4253 17.953 18.4149 17.8302 18.4149C17.7074 18.4149 17.6175 18.4253 17.5513 18.4362C17.4425 18.4554 17.3435 18.5543 17.3241 18.6634C17.3131 18.7296 17.3027 18.8196 17.3027 18.9423C17.3027 19.0651 17.3131 19.1551 17.3241 19.2213C17.3432 19.3301 17.4422 19.4291 17.5513 19.4485C17.6175 19.4594 17.7074 19.4698 17.8302 19.4698C17.953 19.4698 18.0429 19.4594 18.1091 19.4485C18.2179 19.4293 18.3169 19.3304 18.3363 19.2213C18.3473 19.1551 18.3577 19.0651 18.3577 18.9423C18.3577 18.8196 18.3473 18.7296 18.3363 18.6634C18.3172 18.5546 18.2182 18.4556 18.1091 18.4362ZM17.8299 18.0914C18.1168 18.0914 18.3495 17.8587 18.3495 17.5719V16.7051C18.3495 16.4182 18.1168 16.1855 17.8299 16.1855C17.5431 16.1855 17.3104 16.4182 17.3104 16.7051V17.5719C17.3104 17.8587 17.5431 18.0914 17.8299 18.0914Z" fill="#0063C6"/>
</g>
<defs>
<clipPath id="clip0_1_10672">
<rect width="14" height="14" fill="white" transform="translate(7 7)"/>
</clipPath>
</defs>
</svg>
