<svg width="122" height="120" viewBox="0 0 122 120" fill="none" xmlns="http://www.w3.org/2000/svg">
<rect x="0.833313" width="120.333" height="120" rx="60" fill="#E7E7E7"/>
<path d="M92.9289 51.1802C93.4266 50.7846 94.1667 51.1547 94.1667 51.7799V77.875C94.1667 81.2565 91.4232 84 88.0417 84H34.9583C31.5768 84 28.8333 81.2565 28.8333 77.875V51.7927C28.8333 51.1547 29.5607 50.7974 30.0711 51.193C32.9294 53.4133 36.7193 56.2333 49.7349 65.6888C52.4273 67.6539 56.97 71.7883 61.5 71.7628C66.0555 71.801 70.6875 67.5773 73.2778 65.6888C86.2935 56.2333 90.0706 53.4005 92.9289 51.1802ZM61.5 67.6667C64.4604 67.7177 68.7224 63.9406 70.8661 62.3839C87.7992 50.0956 89.088 49.0237 92.9927 45.9612C93.7328 45.387 94.1667 44.4937 94.1667 43.5495V41.125C94.1667 37.7435 91.4232 35 88.0417 35H34.9583C31.5768 35 28.8333 37.7435 28.8333 41.125V43.5495C28.8333 44.4937 29.2672 45.3742 30.0073 45.9612C33.912 49.0109 35.2008 50.0956 52.1338 62.3839C54.2776 63.9406 58.5396 67.7177 61.5 67.6667Z" fill="#6C7176"/>
</svg>
