<svg width="25" height="21" viewBox="0 0 25 21" fill="none" xmlns="http://www.w3.org/2000/svg">
<path d="M24.4224 2.41262C23.5332 2.81401 22.5766 3.08549 21.5735 3.20674C22.5977 2.58206 23.3837 1.59364 23.7547 0.413932C22.7963 0.992677 21.7344 1.41252 20.6051 1.63882C19.7003 0.657932 18.4112 0.0449219 16.9838 0.0449219C14.2451 0.0449219 12.0238 2.30605 12.0238 5.09397C12.0238 5.48971 12.0679 5.87491 12.1529 6.24468C8.03081 6.03419 4.37586 4.02421 1.92936 0.968578C1.5025 1.71413 1.25763 2.58206 1.25763 3.50722C1.25763 5.25852 2.13392 6.80459 3.46406 7.7098C2.6514 7.68382 1.88609 7.45677 1.21768 7.07759C1.21731 7.09905 1.21731 7.12051 1.21731 7.1416C1.21731 9.58799 2.92772 11.6285 5.19629 12.092C4.78053 12.208 4.34146 12.2693 3.88982 12.2693C3.56949 12.2693 3.25914 12.2381 2.95657 12.1793C3.58761 14.1848 5.41897 15.6447 7.58989 15.6857C5.89207 17.0401 3.75369 17.847 1.42926 17.847C1.02977 17.847 0.633986 17.8233 0.246704 17.7763C2.44056 19.2094 5.04833 20.0449 7.84919 20.0449C16.9723 20.0449 21.9615 12.3514 21.9615 5.67874C21.9615 5.45997 21.9567 5.24195 21.9471 5.02581C22.9169 4.31415 23.7577 3.42514 24.4224 2.41262Z" fill="#55ACEE"/>
</svg>
