<svg width="38" height="47" viewBox="0 0 38 47" fill="none" xmlns="http://www.w3.org/2000/svg">
<rect width="38" height="47" rx="4" fill="#FF5C5F" fill-opacity="0.1"/>
<g clip-path="url(#clip0_1_11520)">
<path d="M28.7081 21.5342C26.7648 17.2777 22.9909 14.561 22.9909 14.561C22.8343 15.7068 22.3357 16.7562 21.6595 17.6949C21.3056 17.4006 20.9571 17.0999 20.6171 16.7888C20.0443 16.2645 19.4942 15.6958 18.9988 15.086L18.3833 27.1234L18.9988 38.1167C19.0879 38.1192 19.1771 38.1209 19.2661 38.1209C23.9512 38.1209 28.1495 34.9969 29.421 30.4929C30.2743 27.5366 29.902 24.1491 28.7081 21.5342Z" fill="#FD6717"/>
<path d="M16.8726 10.5535C16.8726 10.5535 12.123 13.9726 9.67713 19.3296C8.08808 22.8099 7.56059 27.2651 8.7938 30.6539C10.383 35.0206 14.7096 37.9974 18.9988 38.1168V15.0861C17.9217 13.7605 17.1031 12.2398 16.8726 10.5535Z" fill="#FD8C02"/>
<path d="M18.9988 21.4978L18.3833 30.874L18.9988 38.121C22.5027 38.121 25.3431 35.2361 25.3431 31.6775C25.3431 26.1681 18.9988 21.4978 18.9988 21.4978Z" fill="#FDAE02"/>
<path d="M12.6543 31.6775C12.6543 35.2361 15.4948 38.121 18.9987 38.121V21.4978C18.9987 21.4978 12.6543 26.1681 12.6543 31.6775Z" fill="#FDCB02"/>
<path d="M18.9988 27.9504L18.3081 33.4779L18.9987 38.1211C21.1425 38.1211 22.8804 36.356 22.8804 34.1787C22.8805 30.8078 18.9988 27.9504 18.9988 27.9504Z" fill="#EFE2DD"/>
<path d="M15.1172 34.1787C15.1172 36.356 16.855 38.121 18.9989 38.121V27.9504C18.9979 27.9511 15.1172 30.8082 15.1172 34.1787Z" fill="#FFFBF5"/>
<path d="M29.4934 21.1645C27.4763 16.7467 23.6532 13.9604 23.4914 13.844L22.3295 13.0076L22.1336 14.4403C22.0457 15.083 21.8221 15.7324 21.4666 16.3792C20.4818 15.4779 19.638 14.5072 18.9988 13.5281L18.3833 14.622L18.9988 16.4127C19.3202 16.7587 19.6664 17.1019 20.0377 17.4419C20.3645 17.741 21.8183 18.9632 21.8183 18.9632C22.6622 18.024 23.2336 16.82 23.4927 16.1068C24.6966 17.1809 26.7049 19.2363 27.9228 21.9041C29.0851 24.4496 29.3408 27.6459 28.589 30.2507C27.427 34.3671 23.5933 37.242 19.2661 37.242C19.177 37.242 19.0878 37.2402 18.9988 37.2375L18.3833 38.375L18.9988 38.9961C19.088 38.9985 19.1771 39 19.2661 39C24.3613 39 28.8793 35.6014 30.2516 30.7402C31.1281 27.7038 30.8446 24.1241 29.4934 21.1645Z" fill="#FF4340"/>
<path d="M9.60549 30.3491C8.52622 27.3834 8.86249 23.2032 10.4623 19.6994C12.099 16.1144 14.8536 13.4015 16.343 12.1082C16.8158 13.5794 17.7046 15.0197 18.9988 16.4127V13.5281C18.3151 12.481 17.8654 11.4243 17.7298 10.4326L17.5339 9L16.372 9.83636C16.1704 9.98151 11.4056 13.454 8.8918 18.9599C8.04454 20.8156 7.49928 22.8857 7.31504 24.9466C7.11881 27.1417 7.34938 29.2206 7.98188 30.9586C8.8176 33.2552 10.4242 35.3235 12.5057 36.7825C14.4676 38.1576 16.763 38.9382 18.9987 38.9962V37.2375C14.9483 37.1163 11.0278 34.2572 9.60549 30.3491Z" fill="#FD6717"/>
</g>
<defs>
<clipPath id="clip0_1_11520">
<rect width="24" height="30" fill="white" transform="translate(7 9)"/>
</clipPath>
</defs>
</svg>
