<svg width="38" height="47" viewBox="0 0 38 47" fill="none" xmlns="http://www.w3.org/2000/svg">
<rect width="38" height="47" fill="#FF5C5F" fill-opacity="0.1"/>
<path fill-rule="evenodd" clip-rule="evenodd" d="M11.5764 37.6851H26.4232C26.6544 37.6851 26.8457 37.8744 26.8457 38.1076V41.0793C26.8457 41.3105 26.6544 41.4999 26.4232 41.4999H11.5764C11.3432 41.4999 11.1538 41.3105 11.1538 41.0793V38.1076C11.1539 37.9955 11.1984 37.8881 11.2777 37.8089C11.3569 37.7296 11.4643 37.6851 11.5764 37.6851Z" fill="#DC4655"/>
<path fill-rule="evenodd" clip-rule="evenodd" d="M24.3145 37.6851H26.4231C26.6544 37.6851 26.8457 37.8744 26.8457 38.1076V41.0793C26.8457 41.3105 26.6544 41.4999 26.4231 41.4999H24.3145C24.5457 41.4999 24.7351 41.3105 24.7351 41.0793V38.1076C24.7351 37.8744 24.5457 37.6851 24.3145 37.6851Z" fill="#D82E3D"/>
<path fill-rule="evenodd" clip-rule="evenodd" d="M12.7048 14.4831H25.2954C25.5265 14.4831 25.7159 14.2917 25.7159 14.0605V11.294L25.0212 9.77036L25.7159 7.78811V5.92258C25.7159 5.68942 25.5265 5.5 25.2954 5.5H12.7048C12.4735 5.5 12.2822 5.68935 12.2822 5.92258V7.78818L12.837 9.68964L12.2822 11.2941V14.0605C12.2822 14.2917 12.4735 14.4831 12.7048 14.4831Z" fill="#DC4655"/>
<path fill-rule="evenodd" clip-rule="evenodd" d="M23.1846 14.4831H25.2954C25.5265 14.4831 25.7158 14.2917 25.7158 14.0605V11.294L25.0212 9.54107L25.7158 7.78811V5.92258C25.7158 5.68942 25.5265 5.5 25.2954 5.5H23.1846C23.2966 5.50007 23.4041 5.54462 23.4833 5.62385C23.5625 5.70309 23.6071 5.81053 23.6071 5.92258V14.0605C23.6071 14.2917 23.4177 14.4831 23.1846 14.4831Z" fill="#D82E3D"/>
<path fill-rule="evenodd" clip-rule="evenodd" d="M11.154 13.5823H26.8459C28.3927 13.5823 29.6583 14.8479 29.6583 16.3946V20.4785L28.9827 26.6592L29.6583 32.3795V36.4634C29.6583 38.0121 28.3927 39.2777 26.8459 39.2777H11.154C9.60742 39.2777 8.3418 38.0121 8.3418 36.4634V32.3795L8.93179 26.4061L8.3418 20.4785V16.3946C8.3418 14.8479 9.60742 13.5823 11.154 13.5823Z" fill="#E6646E"/>
<path fill-rule="evenodd" clip-rule="evenodd" d="M24.7354 13.5823H26.846C28.3927 13.5823 29.6584 14.8479 29.6584 16.3946V36.4634C29.6584 38.0121 28.3927 39.2777 26.846 39.2777H24.7354C26.2819 39.2777 27.5476 38.0121 27.5476 36.4634V16.3946C27.5476 14.8479 26.282 13.5823 24.7354 13.5823Z" fill="#DC4655"/>
<path fill-rule="evenodd" clip-rule="evenodd" d="M12.2822 7.78809H13.5499C14.1996 7.78809 14.7318 8.31824 14.7318 8.97004V10.1121C14.7318 10.7619 14.1996 11.2941 13.5499 11.2941H12.2822V7.78809Z" fill="#CBE2FF"/>
<path fill-rule="evenodd" clip-rule="evenodd" d="M25.7161 7.78809H24.4504C23.8008 7.78809 23.2686 8.31824 23.2686 8.97004V10.1121C23.2686 10.7619 23.8007 11.2941 24.4504 11.2941H25.7161V7.78809Z" fill="#BED8FB"/>
<path fill-rule="evenodd" clip-rule="evenodd" d="M17.7773 7.78809H20.2208V13.5821H17.7773V7.78809Z" fill="#CBE2FF"/>
<path d="M16.8544 8.31435C16.5633 8.31435 16.3262 8.07915 16.3262 7.7882C16.3261 7.71882 16.3398 7.65012 16.3663 7.58601C16.3928 7.52191 16.4317 7.46367 16.4808 7.41461C16.5298 7.36555 16.5881 7.32665 16.6522 7.30012C16.7163 7.27359 16.785 7.25996 16.8544 7.26001H21.1456C21.4366 7.26001 21.6717 7.49521 21.6717 7.7882C21.6718 7.85731 21.6582 7.92575 21.6318 7.98962C21.6054 8.05348 21.5666 8.11151 21.5178 8.16038C21.4689 8.20925 21.4109 8.24801 21.347 8.27443C21.2832 8.30085 21.2147 8.31441 21.1456 8.31435H16.8544Z" fill="#294B64"/>
<path fill-rule="evenodd" clip-rule="evenodd" d="M8.39165 36.9836C8.35874 36.8121 8.34205 36.638 8.3418 36.4634V34.6736H18.3075C18.9432 34.6736 19.4633 35.1938 19.4633 35.8276C19.4633 36.4634 18.9432 36.9836 18.3075 36.9836L8.39165 36.9836ZM29.6086 15.8743C29.6413 16.0458 29.6579 16.2199 29.6583 16.3945V18.1843H19.6926C19.0569 18.1843 18.5368 17.6661 18.5368 17.0303C18.5368 16.3944 19.0569 15.8743 19.6926 15.8743H29.6086Z" fill="#DC4655"/>
<path fill-rule="evenodd" clip-rule="evenodd" d="M8.3418 20.4783H29.6583V32.3792H8.3418V20.4783Z" fill="#FFE17D"/>
<path fill-rule="evenodd" clip-rule="evenodd" d="M27.5474 20.4783H29.6581V32.3792H27.5474V20.4783Z" fill="#FFC369"/>
<path d="M15.6905 25.3496C15.6905 25.6406 15.4553 25.8778 15.1643 25.8778C14.8733 25.8778 14.6361 25.6406 14.6361 25.3496C14.6361 24.8952 14.4508 24.4806 14.1498 24.1796C13.849 23.8787 13.4343 23.6913 12.9779 23.6913C12.5234 23.6913 12.1089 23.8787 11.8079 24.1796C11.5069 24.4806 11.3196 24.8952 11.3196 25.3496V27.5081C11.3196 27.9646 11.5069 28.3792 11.8079 28.6801C12.1088 28.9791 12.5234 29.1665 12.9779 29.1665C13.4343 29.1665 13.849 28.9811 14.1498 28.6801C14.3771 28.4509 14.5384 28.1579 14.6043 27.8331H14.0761C13.7851 27.8331 13.55 27.5979 13.55 27.3068C13.55 27.0158 13.7851 26.7807 14.0761 26.7807H15.1185C15.4274 26.7807 15.6905 26.996 15.6905 27.3068V27.5081C15.6905 28.2556 15.3855 28.9332 14.8952 29.4256C14.4029 29.9159 13.7253 30.2208 12.9778 30.2208C12.2323 30.2208 11.5527 29.9159 11.0625 29.4256C10.5702 28.9333 10.2651 28.2556 10.2651 27.5081V25.3496C10.2651 24.6022 10.5702 23.9245 11.0625 23.4342C11.5528 22.9419 12.2324 22.637 12.9778 22.637C13.7253 22.637 14.4029 22.9419 14.8952 23.4342C15.3855 23.9245 15.6905 24.6022 15.6905 25.3496ZM22.3077 28.0623C22.3077 27.7713 22.5449 27.5341 22.8359 27.5341C23.1269 27.5341 23.3641 27.7713 23.3641 28.0623C23.3641 28.3653 23.4877 28.6403 23.689 28.8416C23.7909 28.9447 23.9123 29.0264 24.0461 29.0822C24.1799 29.1379 24.3234 29.1666 24.4683 29.1665H25.5746C25.8775 29.1665 26.1545 29.0429 26.3539 28.8416C26.5551 28.6403 26.6787 28.3653 26.6787 28.0623C26.6787 27.7593 26.5551 27.4823 26.3539 27.281C26.1466 27.0737 25.8675 26.9541 25.5746 26.9541H24.4683C23.8744 26.9541 23.3343 26.7129 22.9436 26.3223C22.551 25.9316 22.3078 25.3915 22.3078 24.7975C22.3078 24.2015 22.551 23.6613 22.9436 23.2708C23.3343 22.8801 23.8744 22.637 24.4683 22.637H25.5746C26.1685 22.637 26.7086 22.8801 27.0993 23.2708C27.4919 23.6614 27.735 24.2016 27.735 24.7975C27.735 25.0884 27.4978 25.3237 27.2068 25.3237C26.9158 25.3237 26.6786 25.0884 26.6786 24.7975C26.6786 24.4925 26.555 24.2174 26.3538 24.0161C26.1544 23.8168 25.8775 23.6912 25.5745 23.6912H24.4683C24.1654 23.6912 23.8883 23.8168 23.689 24.0161C23.4877 24.2174 23.3641 24.4924 23.3641 24.7975C23.3641 25.1004 23.4877 25.3755 23.689 25.5768C23.8963 25.7841 24.1753 25.9036 24.4683 25.9036H25.5746C26.1685 25.9036 26.7086 26.1448 27.0993 26.5354C27.4919 26.9261 27.735 27.4662 27.735 28.0621C27.735 28.6561 27.4919 29.1962 27.0993 29.5869C26.7086 29.9796 26.1685 30.2207 25.5746 30.2207H24.4683C24.1849 30.2211 23.9042 30.1652 23.6425 30.0564C23.3808 29.9476 23.1433 29.7881 22.9436 29.5869C22.5509 29.1963 22.3077 28.6562 22.3077 28.0623ZM17.3269 29.8143C17.2611 30.0973 16.9781 30.2727 16.6951 30.2069C16.4121 30.1411 16.2347 29.8581 16.3024 29.575C16.8107 27.3985 17.319 25.2221 17.8291 23.0455C17.885 22.8063 18.0963 22.637 18.3414 22.637H19.6589C19.9179 22.637 20.1332 22.8243 20.177 23.0714C20.6852 25.24 21.1915 27.4065 21.6978 29.575C21.7636 29.8581 21.5882 30.1411 21.3052 30.2069C21.0222 30.2727 20.7391 30.0973 20.6734 29.8143L20.2089 27.8351H17.7914L17.3269 29.8143ZM18.7599 23.6913L18.0365 26.7787H19.9638L19.2403 23.6913H18.7599Z" fill="#E6646E"/>
</svg>
