<svg width="23" height="22" viewBox="0 0 23 22" fill="none" xmlns="http://www.w3.org/2000/svg">
<path d="M14.0127 2.51165C11.9169 4.10201 11.0935 6.04965 11.9344 8.43736C12.7927 10.8774 14.7447 11.8011 17.2675 11.7531C17.3721 12.2716 17.4636 12.7509 17.5682 13.2302C17.8252 14.3892 18.274 15.4044 19.4243 15.9926C19.6814 16.1233 19.921 16.4458 20.0082 16.7246C20.2391 17.4566 19.9994 17.7486 19.2195 17.7529C13.7426 17.7616 8.26567 17.7616 2.79311 17.7442C2.51425 17.7442 1.99139 17.4958 2.00011 17.4043C2.04804 16.9468 2.10468 16.2279 2.38789 16.0928C4.4706 15.1081 4.49239 13.1605 4.73203 11.3392C4.88453 10.1759 4.88017 8.99071 4.90196 7.81429C4.9586 4.98215 6.68839 2.69901 9.42902 1.9583C9.89959 1.83194 10.0826 1.65765 10.2002 1.18273C10.27 0.895154 10.6708 0.546583 10.9671 0.503012C11.2111 0.463798 11.7339 0.816726 11.7514 1.02587C11.808 1.7448 12.2437 1.89294 12.8058 2.02801C13.1718 2.1108 13.5117 2.30251 14.0127 2.51165Z" fill="#777777"/>
<path d="M12.6011 6.67254C12.6533 4.4199 14.418 2.79904 16.7578 2.85133C18.8361 2.89926 20.579 4.74232 20.531 6.83375C20.4788 9.08639 18.6836 10.8031 16.4266 10.7465C14.2132 10.6985 12.5488 8.92082 12.6011 6.67254ZM16.9669 4.6944C16.4353 4.97325 16.0258 5.16061 15.6554 5.40461C15.5857 5.45254 15.6815 5.88825 15.6903 5.88825C16.3351 5.86647 16.1695 6.34139 16.1826 6.68125C16.2 7.16925 16.2088 7.66161 16.2 8.15396C16.187 8.71603 16.4092 8.90339 16.9713 8.67246C16.9669 7.40889 16.9669 6.14532 16.9669 4.6944Z" fill="#777777"/>
<path d="M13.7513 18.9292C13.7426 20.5108 12.4267 21.7134 10.7754 21.7178C9.185 21.7265 7.80815 20.4847 7.75586 18.9292C9.73836 18.9292 11.7165 18.9292 13.7513 18.9292Z" fill="#777777"/>
</svg>
