<svg width="23" height="24" viewBox="0 0 23 24" fill="none" xmlns="http://www.w3.org/2000/svg">
<path d="M4.2531 7.99348C4.2531 7.91158 4.25205 7.83606 4.2531 7.76054C4.25938 7.15425 4.23216 6.5469 4.31381 5.94275C4.4143 5.19925 4.62262 4.48979 4.95236 3.81862C5.57834 2.54436 6.50162 1.55622 7.72324 0.863784C8.93962 0.175598 10.246 -0.0998896 11.6309 0.0320038C13.1153 0.17347 14.4175 0.754227 15.5208 1.77002C16.6545 2.81347 17.3601 4.10794 17.6406 5.6396C17.7579 6.27886 17.7505 6.92344 17.7495 7.56801C17.7495 7.70523 17.7495 7.84244 17.7495 7.99241C17.851 8.00199 17.9473 8.00518 18.0415 8.02007C19.2129 8.20621 19.9938 9.12414 19.9959 10.3378C20.0001 12.5247 19.997 14.7126 19.997 16.8995C19.997 18.4758 19.9949 20.0532 19.997 21.6296C19.998 22.3454 19.7552 22.9517 19.2255 23.4271C18.8005 23.809 18.2949 23.9951 17.7296 23.9951C15.3188 23.9973 12.907 23.9962 10.4962 23.9962C8.44134 23.9962 6.38752 23.9973 4.33265 23.9973C3.5308 23.9973 2.88179 23.6814 2.41073 23.0155C2.12914 22.6177 2.00457 22.1667 2.00352 21.6817C2.00143 20.0894 2.00352 18.4982 2.00352 16.9059C2.00352 15.2263 2.00248 13.5468 2.00352 11.8673C2.00352 11.2876 1.98992 10.7058 2.01713 10.1272C2.07052 8.99438 2.99798 8.06687 4.10968 8.00624C4.1547 8.00411 4.19866 7.9988 4.2531 7.99348ZM11.0196 11.428C8.5858 11.3908 6.54768 13.4192 6.50476 15.9167C6.4608 18.4641 8.48321 20.5638 10.9976 20.5659C13.4293 20.567 15.4518 18.5971 15.4957 16.0709C15.5407 13.5298 13.5487 11.4663 11.0196 11.428ZM15.4894 7.99029C15.4926 7.95838 15.4978 7.93178 15.4978 7.90626C15.4968 7.49781 15.5093 7.0883 15.4905 6.68092C15.4224 5.2269 14.8195 4.04093 13.6659 3.18575C12.3197 2.18697 10.8301 1.99339 9.29134 2.64009C7.73161 3.2953 6.80729 4.51638 6.56129 6.21717C6.47859 6.78623 6.52151 7.37443 6.50895 7.95306C6.50895 7.96263 6.51732 7.97327 6.5236 7.98922C9.51012 7.99029 12.4966 7.99029 15.4894 7.99029Z" fill="#777777"/>
<path d="M11.6324 13.8257C11.1592 14.1118 10.932 14.5181 11.0242 15.0595C11.1027 15.519 11.3843 15.8349 11.8312 15.9509C12.4028 16.0987 12.8309 15.8647 13.1356 15.3648C13.4025 16.0445 13.2151 17.1507 12.3892 17.7931C11.4753 18.5037 10.2788 18.4388 9.4414 17.6421C8.66572 16.9039 8.52754 15.6605 9.12526 14.7372C9.73346 13.798 10.8588 13.5385 11.6324 13.8257Z" fill="#777777"/>
</svg>
