<svg width="24" height="23" viewBox="0 0 24 23" fill="none" xmlns="http://www.w3.org/2000/svg">
<path d="M11.5843 22.6732C9.36403 22.6375 7.16898 22.4311 5.0081 21.9098C3.86305 21.6336 2.74771 21.2742 1.71405 20.6935C1.25663 20.4366 0.827422 20.138 0.487324 19.7311C0.380394 19.6034 0.28683 19.4623 0.202176 19.3182C-0.01911 18.947 -0.050298 18.546 0.0685135 18.1375C0.271978 17.438 0.479898 16.7415 0.70267 16.048C0.815541 15.696 1.06801 15.4331 1.35019 15.2014C2.04821 14.6282 2.83682 14.2034 3.6388 13.798C4.74077 13.241 5.89176 12.8014 7.0472 12.3737C7.09621 12.3559 7.17938 12.3767 7.22245 12.4108C7.37542 12.5341 7.51502 12.6737 7.66205 12.8029C8.36452 13.4222 9.13828 13.939 10.0516 14.1663C12.1205 14.6816 13.9279 14.1574 15.4769 12.7049C15.5496 12.6366 15.6328 12.5742 15.6937 12.4955C15.8081 12.3485 15.9224 12.3425 16.0977 12.4064C17.7209 12.99 19.2863 13.6985 20.7788 14.5658C21.0759 14.7381 21.3551 14.9445 21.6298 15.1524C21.9655 15.4064 22.2105 15.7376 22.362 16.1311C22.6382 16.8425 22.8655 17.5687 22.9991 18.3217C23.0778 18.7643 22.959 19.1578 22.7021 19.5158C22.359 19.994 21.8972 20.3341 21.3981 20.6281C20.3972 21.2177 19.31 21.5875 18.1932 21.8786C16.9279 22.2083 15.6417 22.4207 14.3393 22.5172C13.4229 22.5841 12.5036 22.6212 11.5843 22.6732Z" fill="#777777"/>
<path d="M17.0751 6.74061C16.9934 8.33863 16.1231 10.4282 14.2311 12.0322C13.7276 12.4584 13.1707 12.8223 12.5113 12.9574C11.2029 13.2262 10.0058 13.0005 8.93801 12.1465C7.62663 11.0965 6.78456 9.74506 6.28109 8.16486C5.9707 7.19061 5.84892 6.19111 5.94991 5.16933C6.13258 3.34112 7.43802 0.7941 10.4202 0.125785C11.99 -0.226194 13.4009 0.183706 14.7004 1.06588C15.9895 1.9436 17.1568 3.76142 17.0751 6.74061Z" fill="#777777"/>
</svg>
